<?xml version="1.0" encoding="UTF-8" standalone="no"?>
<!-- Created with Inkscape (http://www.inkscape.org/) -->

<svg
   width="210mm"
   height="210mm"
   viewBox="0 0 210 210"
   version="1.1"
   id="svg1"
   xml:space="preserve"
   sodipodi:docname="Chats3.svg"
   inkscape:version="1.3 (0e150ed6c4, 2023-07-21)"
   xmlns:inkscape="http://www.inkscape.org/namespaces/inkscape"
   xmlns:sodipodi="http://sodipodi.sourceforge.net/DTD/sodipodi-0.dtd"
   xmlns="http://www.w3.org/2000/svg"
   xmlns:svg="http://www.w3.org/2000/svg"><sodipodi:namedview
     id="namedview1"
     pagecolor="#000000"
     bordercolor="#000000"
     borderopacity="0.25"
     inkscape:showpageshadow="2"
     inkscape:pageopacity="0.0"
     inkscape:pagecheckerboard="0"
     inkscape:deskcolor="#d1d1d1"
     inkscape:document-units="mm"
     inkscape:zoom="0.37282197"
     inkscape:cx="1079.6038"
     inkscape:cy="494.87427"
     inkscape:window-width="1920"
     inkscape:window-height="1051"
     inkscape:window-x="-9"
     inkscape:window-y="-9"
     inkscape:window-maximized="1"
     inkscape:current-layer="layer1" /><defs
     id="defs1" /><g
     inkscape:label="Layer 1"
     inkscape:groupmode="layer"
     id="layer1"><path
       style="color:#000000;fill:#ffffff;stroke-width:10.6756;stroke-linecap:round;stroke-linejoin:round;-inkscape-stroke:none"
       d="m -3395.1953,93.071541 c -55.6708,0 -100.959,45.287899 -100.959,100.959009 0,55.67112 45.2883,100.97987 100.959,100.97987 24.9057,0 46.9891,-10.03598 64.6163,-25.04167 l 32.4854,32.48537 a 8.0066625,8.0066625 0 0 0 11.3219,0 8.0066625,8.0066625 0 0 0 0,-11.32192 l -32.4854,-32.48537 c 15.0057,-17.62716 25.0417,-39.7106 25.0417,-64.61628 0,-55.67105 -45.3088,-100.959009 -100.9799,-100.959009 z m 0,16.013319 c 47.0169,0 84.9666,37.92872 84.9666,84.94569 0,47.01697 -37.9496,84.96654 -84.9666,84.96654 -47.0166,0 -84.9457,-37.94963 -84.9457,-84.96654 0,-47.0169 37.9292,-84.94569 84.9457,-84.94569 z"
       id="path1" /><path
       style="color:#000000;fill:#ffffff;stroke-linecap:round;stroke-linejoin:round;-inkscape-stroke:none"
       d="m -2817.4743,373.88329 c -22.2088,0 -40.3828,18.17594 -40.3828,40.38476 v 86.1543 c 0,22.20883 18.174,40.38482 40.3828,40.38482 h 13.4629 v 35 a 8.0777072,8.0777072 0 0 0 13.1211,6.3066 l 51.6348,-41.3066 h 51.0136 c 22.2089,0 40.3848,-18.17599 40.3848,-40.38482 v -86.1543 c 0,-22.20882 -18.1759,-40.38476 -40.3848,-40.38476 z m 0,16.15429 h 129.2324 c 13.4804,0 24.2305,10.7501 24.2305,24.23047 v 86.1543 c 0,13.48038 -10.7501,24.23047 -24.2305,24.23047 h -53.8476 a 8.0768995,8.0768995 0 0 0 -2.4727,1.02344 8.0768995,8.0768995 0 0 0 -2.5722,0.74609 l -40.7246,32.58012 v -26.27348 a 8.0777072,8.0777072 0 0 0 -8.0762,-8.07617 h -21.5391 c -13.4803,0 -24.2304,-10.75009 -24.2304,-24.23047 v -86.1543 c 0,-13.48037 10.7501,-24.23047 24.2304,-24.23047 z"
       id="path1-0" /><path
       style="color:#000000;clip-rule:evenodd;fill:#797c7b;fill-rule:evenodd;stroke-linecap:round;stroke-linejoin:round;-inkscape-stroke:none"
       d="m 104.71575,0.46420558 c -57.904901,0 -105.00000129,47.09506442 -105.00000129,105.00000442 0,57.90541 47.09510029,105.00001 105.00000129,105 17.4914,0 33.9195,-4.46766 48.4141,-12.04101 l 47.2656,11.81641 a 7.50075,7.50075 0 0 0 9.0957,-9.09571 l -11.8164,-47.26562 c 7.5734,-14.49462 12.041,-30.9227 12.041,-48.41407 0,-57.9049 -47.0945,-105.00000442 -105,-105.00000442 z m 0,15.00000042 c 49.8005,0 90,40.200014 90,90.000004 0,15.99469 -4.2033,30.93747 -11.5097,43.94922 a 7.50075,7.50075 0 0 0 -0.7363,5.49219 l 9.4375,37.75 -37.75,-9.4375 a 7.50075,7.50075 0 0 0 -5.4903,0.73633 c -13.0117,7.30647 -27.9565,11.50977 -43.9512,11.50976 -49.799901,0 -90.000001,-40.19951 -90.000001,-90 0,-49.79994 40.2001,-90.000004 90.000001,-90.000004 z"
       id="path1-1" /><path
       style="color:#000000;fill:#797c7b;stroke-linecap:round;stroke-linejoin:round;-inkscape-stroke:none"
       d="m 104.71775,100.72593 c -2.6313,0 -5.263001,0.97583 -7.218701,2.92969 a 7.5,7.5 0 0 0 -0.01,0.0234 7.5,7.5 0 0 0 -0.019,0.008 c -3.8857,3.92637 -3.8878,10.46191 0,14.38867 a 7.50075,7.50075 0 0 0 0.025,0.0254 c 3.909401,3.90941 10.529101,3.91005 14.439501,0.002 v -0.002 c 3.9145,-3.91222 3.9132,-10.53007 0,-14.4414 a 7.50075,7.50075 0 0 0 0,-0.004 c -1.9558,-1.95386 -4.5875,-2.92969 -7.2188,-2.92969 z m 3.3828,13.54297 c -0.8291,0.82831 -1.966,1.22918 -3.1191,1.28906 a 7.5,7.5 0 0 0 3.1191,-1.28906 z"
       id="path2" /><path
       style="color:#000000;fill:#797c7b;stroke-linecap:round;stroke-linejoin:round;-inkscape-stroke:none"
       d="m 61.377949,100.72398 c -2.6314,0 -5.2625,0.97863 -7.2188,2.93359 a 7.5,7.5 0 0 0 -0.01,0.0215 7.5,7.5 0 0 0 -0.021,0.008 c -3.8852,3.92664 -3.8873,10.46165 0,14.38867 a 7.50075,7.50075 0 0 0 0.025,0.0234 c 3.9111,3.91227 10.5302,3.91227 14.4414,0 3.9118,-3.91288 3.9099,-10.52838 0,-14.43945 a 7.50075,7.50075 0 0 0 0,-0.002 c -1.9562,-1.95496 -4.5873,-2.93359 -7.2187,-2.93359 z m 3.3847,13.54297 c -0.8318,0.83128 -1.973,1.23663 -3.1289,1.29492 a 7.5,7.5 0 0 0 3.1289,-1.29492 z"
       id="path3" /><path
       style="color:#000000;fill:#797c7b;stroke-linecap:round;stroke-linejoin:round;-inkscape-stroke:none"
       d="m 148.04785,100.72593 c -2.6313,0 -5.2631,0.97583 -7.2188,2.92969 a 7.5,7.5 0 0 0 -0.01,0.0234 7.5,7.5 0 0 0 -0.02,0.008 c -3.8857,3.92637 -3.8878,10.46191 0,14.38867 a 7.50075,7.50075 0 0 0 0.025,0.0254 c 3.9094,3.90941 10.5291,3.91005 14.4394,0.002 v -0.002 c 3.9146,-3.91222 3.9133,-10.53007 0,-14.4414 a 7.50075,7.50075 0 0 0 0,-0.004 c -1.9557,-1.95386 -4.5874,-2.92969 -7.2187,-2.92969 z m 3.3828,13.54297 c -0.8291,0.82831 -1.966,1.22918 -3.1191,1.28906 a 7.5,7.5 0 0 0 3.1191,-1.28906 z"
       id="path4" /><path
       style="color:#000000;fill:#000e08;stroke-linecap:round;stroke-linejoin:round;-inkscape-stroke:none"
       d="m 1551.3824,355.40844 c -12.7807,0 -25.5607,4.8537 -35.2656,14.5586 l -77.918,77.916 c -26.8322,26.8321 -26.8322,70.5702 0,97.4023 26.8321,26.8322 70.5701,26.8321 97.4023,0 l 47.2871,-47.2871 a 8.0803499,8.0803499 0 0 0 0,-11.4257 8.0803499,8.0803499 0 0 0 -11.4277,0 l -47.2851,47.2851 c -20.6588,20.6587 -53.8902,20.6587 -74.5489,0 -20.6588,-20.6588 -20.6587,-53.8882 0,-74.5469 l 77.916,-77.916 c 13.2348,-13.2347 34.443,-13.2347 47.6778,0 13.2347,13.2348 13.2347,34.443 0,47.6778 l -77.916,77.916 c -5.8094,5.8093 -14.9992,5.8093 -20.8086,0 -5.8094,-5.8095 -5.8094,-14.9992 0,-20.8086 l 59.1054,-59.1055 a 8.0803499,8.0803499 0 0 0 0,-11.4277 8.0803499,8.0803499 0 0 0 -11.4257,0 l -59.1055,59.1054 c -11.9888,11.989 -11.9888,31.6752 0,43.6641 11.989,11.9888 31.6731,11.9888 43.6621,0 l 77.916,-77.918 c 19.4098,-19.4098 19.4098,-51.1214 0,-70.5312 -9.7049,-9.7049 -22.485,-14.5586 -35.2656,-14.5586 z"
       id="path1-8" /><path
       style="color:#000000;fill:#797c7b;stroke-linecap:round;stroke-linejoin:round;-inkscape-stroke:none"
       d="m 1701.7143,687.57164 a 9.4525499,9.4525499 0 0 0 -9.4531,9.4512 v 103.2148 l -21.6738,-21.6738 a 9.4525499,9.4525499 0 0 0 -13.3672,0 9.4525499,9.4525499 0 0 0 0,13.3672 l 28.8984,28.8984 c 8.5344,8.5337 22.6571,8.5337 31.1914,0 l 28.8985,-28.8984 a 9.4525499,9.4525499 0 0 0 0,-13.3672 9.4525499,9.4525499 0 0 0 -13.3672,0 l -21.6739,21.6738 v -103.2148 a 9.4525499,9.4525499 0 0 0 -9.4531,-9.4512 z"
       id="path1-4" /><path
       style="color:#000000;fill:#797c7b;stroke-linecap:round;stroke-linejoin:round;-inkscape-stroke:none"
       d="m 1802.5424,617.22984 c -5.6644,0 -11.3305,2.1349 -15.5976,6.4024 l -28.8965,28.8965 a 9.4525499,9.4525499 0 0 0 0,13.3691 9.4525499,9.4525499 0 0 0 13.3672,0 l 21.6738,-21.6738 v 103.2129 a 9.4525499,9.4525499 0 0 0 9.4531,9.4531 9.4525499,9.4525499 0 0 0 9.4512,-9.4531 v -103.2129 l 21.6738,21.6738 a 9.4525499,9.4525499 0 0 0 13.3692,0 9.4525499,9.4525499 0 0 0 0,-13.3691 l -28.8984,-28.8965 c -4.2671,-4.2675 -9.9313,-6.4024 -15.5958,-6.4024 z"
       id="path2-4" /><path
       style="color:#000000;fill:#797c7b;stroke-linejoin:round;-inkscape-stroke:none"
       d="m -636.1728,306.16423 c -28.1558,0 -51.1543,22.99655 -51.1543,51.15234 v 129.23048 c 0,28.15544 22.9984,51.1543 51.1543,51.1543 h 107.6914 c 28.1555,0 51.1543,-22.99874 51.1543,-51.1543 v -68.3086 c 0,-13.56391 -5.3906,-26.5808 -14.9824,-36.17188 l -60.9199,-60.91992 c -9.5914,-9.59069 -22.6079,-14.98242 -36.1719,-14.98242 z m 0,16.15234 h 46.7715 c 3.3536,0 6.6049,0.63909 9.7656,1.5625 v 33.4375 c 0,28.15588 22.9989,51.1543 51.1543,51.1543 h 33.4395 c 0.9237,3.16119 1.5605,6.41328 1.5605,9.76758 v 68.3086 c 0,19.42502 -15.575,35 -35,35 h -107.6914 c -19.4255,0 -35,-15.57487 -35,-35 V 357.31657 c 0,-19.42564 15.5744,-35 35,-35 z m 72.6914,11.42188 58.5762,58.57812 h -23.5762 c -19.4251,0 -35,-15.57446 -35,-35 z"
       id="path1-2" /><path
       d="m -647.9943,439.5058 h 17.0688 c 3.8492,0 6.7834,0.29508 8.8026,0.88416 2.7133,0.79907 5.0375,2.21846 6.9727,4.25923 1.9351,2.03969 3.4074,4.54246 4.417,7.50831 1.0096,2.94538 1.5144,6.5843 1.5144,10.91677 0,3.80692 -0.4733,7.08831 -1.4198,9.84416 -1.1568,3.36538 -2.8079,6.08892 -4.9534,8.17169 -1.6196,1.57662 -3.807,2.80754 -6.5624,3.69062 -2.0614,0.65261 -4.8168,0.97892 -8.2663,0.97892 h -17.5736 z m 9.3389,7.82493 v 30.63524 h 6.9727 c 2.6082,0 4.4906,-0.14646 5.6476,-0.44154 1.5143,-0.378 2.7658,-1.01985 3.7545,-1.92446 1.0096,-0.90462 1.8299,-2.38754 2.4608,-4.44877 0.6311,-2.0817 0.9466,-4.91078 0.9466,-8.48724 0,-3.57539 -0.3155,-6.32046 -0.9466,-8.23416 -0.6309,-1.91477 -1.5143,-3.40738 -2.6502,-4.48 -1.1358,-1.07261 -2.5766,-1.79846 -4.3224,-2.17754 -1.3041,-0.294 -3.8596,-0.44153 -7.6667,-0.44153 z"
       fill="#797c7b"
       id="path2-2"
       style="stroke-width:10.7692" /><path
       d="m -603.1614,462.91703 c 0,-4.71153 0.7054,-8.666 2.114,-11.86338 1.0522,-2.35523 2.4823,-4.46923 4.2916,-6.342 1.8296,-1.87169 3.8273,-3.25985 5.9941,-4.16446 2.8819,-1.22016 6.2052,-1.82969 9.9702,-1.82969 6.8147,0 12.2618,2.114 16.3433,6.342 4.101,4.22692 6.1514,10.10584 6.1514,17.63677 0,7.46631 -2.0289,13.31401 -6.0889,17.54201 -4.0589,4.20646 -9.4855,6.30969 -16.2798,6.30969 -6.8783,0 -12.347,-2.09246 -16.4059,-6.27846 -4.06,-4.20647 -6.09,-9.99062 -6.09,-17.35248 z m 9.6234,-0.31553 c 0,5.23707 1.2094,9.21201 3.6282,11.92585 2.4187,2.69231 5.4901,4.03846 9.213,4.03846 3.723,0 6.7728,-1.33538 9.1496,-4.00723 2.3972,-2.6923 3.5969,-6.72001 3.5969,-12.08416 0,-5.29954 -1.1674,-9.254 -3.5022,-11.86231 -2.3143,-2.60831 -5.3953,-3.91246 -9.2443,-3.91246 -3.85,0 -6.9515,1.32569 -9.3078,3.97492 -2.3552,2.62985 -3.5334,6.60477 -3.5334,11.92693 z"
       fill="#797c7b"
       id="path3-0"
       style="stroke-width:10.7692" /><path
       d="m -521.382,468.75396 9.0548,2.87108 c -1.3882,5.04754 -3.7025,8.8017 -6.9408,11.26354 -3.2189,2.43923 -7.3091,3.65939 -12.2737,3.65939 -6.1417,0 -11.1892,-2.09246 -15.1437,-6.27846 -3.9544,-4.20647 -5.9317,-9.94862 -5.9317,-17.22648 0,-7.69892 1.988,-13.67153 5.9629,-17.92107 3.975,-4.27 9.2024,-6.40446 15.6811,-6.40446 5.6571,0 10.2534,1.67246 13.7868,5.0163 2.1032,1.97723 3.6809,4.81708 4.7331,8.51846 l -9.2443,2.20877 c -0.5471,-2.39723 -1.693,-4.29046 -3.4397,-5.67861 -1.7242,-1.38816 -3.8274,-2.08277 -6.3097,-2.08277 -3.4289,0 -6.2149,1.23092 -8.3613,3.69169 -2.1236,2.46077 -3.1866,6.44646 -3.1866,11.95708 0,5.84769 1.0522,10.01216 3.1554,12.49447 2.1032,2.48231 4.8376,3.72292 8.2029,3.72292 2.4824,0 4.6168,-0.78938 6.4056,-2.366 1.7877,-1.57769 3.0703,-4.06 3.8489,-7.44585 z"
       fill="#797c7b"
       id="path4-6"
       style="stroke-width:10.7692" /><path
       style="color:#000000;fill:#797c7b;stroke-width:0.897247;stroke-linejoin:round;-inkscape-stroke:none"
       d="m -281.36439,-778.02151 c -25.26262,0 -45.89624,20.63533 -45.89624,45.89803 v 77.30167 c 0,22.98199 17.09497,42.07899 39.19847,45.34955 3.27046,22.10331 22.3672,39.19847 45.34945,39.19847 h 22.63979 c 12.17017,0 23.84909,-4.83697 32.45503,-13.44291 l 35.33439,-35.33439 c 8.60595,-8.60594 13.44471,-20.28496 13.44471,-32.45512 v -41.96549 c 0,-22.98271 -17.0965,-42.07953 -39.20027,-45.34955 -3.2701,-22.10394 -22.36729,-39.20026 -45.34946,-39.20026 z m 0,14.49439 h 57.97587 c 14.92086,0 27.23728,10.27402 30.4941,24.15739 h -49.81829 c -25.26261,0 -45.89803,20.63533 -45.89803,45.89803 v 69.14408 c -13.88328,-3.25683 -24.15729,-15.57325 -24.15729,-30.49419 v -77.30167 c 0,-17.42956 13.97408,-31.40364 31.40364,-31.40364 z m 38.65168,38.64999 h 57.97588 c 17.42911,0 31.40364,13.97587 31.40364,31.40543 v 41.96549 c 0,3.009 -0.57172,5.9264 -1.40024,8.76224 h -10.6776 c -25.26243,0 -45.89803,20.63551 -45.89803,45.89803 v 10.6776 c -2.83629,0.82879 -5.75422,1.40015 -8.76386,1.40015 h -22.63979 c -17.42946,0 -31.40363,-13.97453 -31.40363,-31.40364 v -77.29987 c 0,-17.42965 13.97408,-31.40543 31.40363,-31.40543 z m 77.30168,96.62755 h 1.82779 l -33.23143,33.23142 v -1.82778 c 0,-17.42911 13.97462,-31.40364 31.40364,-31.40364 z"
       id="path1-6" /><path
       style="color:#000000;fill:#797c7b;stroke-linecap:round;-inkscape-stroke:none"
       d="m -2136.8696,409.31595 c -57.903,0 -104.9999,47.0969 -104.9999,105 0,57.9027 47.0969,105 104.9999,105 57.9027,0 105,-47.0973 105,-105 0,-57.9031 -47.0974,-105 -105,-105 z m 0,14.6524 c 49.9845,0 90.3477,40.3626 90.3477,90.3476 0,49.9845 -40.3633,90.3496 -90.3477,90.3496 -49.9848,0 -90.3495,-40.3651 -90.3495,-90.3496 0,-49.985 40.3646,-90.3476 90.3495,-90.3476 z m 0,24.4179 c -20.1425,0 -36.6288,16.4849 -36.6288,36.627 a 7.3256001,7.3256001 0 0 0 7.3262,7.3261 7.3256001,7.3256001 0 0 0 7.3262,-7.3261 c 0,-12.2243 9.7518,-21.9766 21.9764,-21.9766 12.2248,0 21.9766,9.7523 21.9766,21.9766 0,9.6872 -6.2008,17.8037 -14.7832,20.7754 -7.2465,2.5089 -14.5195,8.8328 -14.5195,18.2949 v 9.7676 a 7.3256001,7.3256001 0 0 0 7.3261,7.3261 7.3256001,7.3256001 0 0 0 7.3242,-7.3261 v -9.7676 c 0,-1.327 1.7132,-3.4302 4.6621,-4.4512 14.3632,-4.9732 24.6407,-18.6571 24.6407,-34.6191 0,-20.1421 -16.4844,-36.627 -36.627,-36.627 z"
       id="path1-9" /><circle
       cx="-2136.8701"
       cy="563.15344"
       r="9.7674417"
       fill="#797c7b"
       id="circle1"
       style="stroke-width:9.76744" /><g
       id="path1-7"
       transform="translate(-4829.9063,-308.23012)"><path
         style="color:#000000;clip-rule:evenodd;fill:#ffffff;fill-rule:evenodd;stroke-linecap:round;stroke-linejoin:round;-inkscape-stroke:none"
         d="m 1348.9102,798.18311 c -7.9084,-14.083 -12.4692,-30.311 -12.4692,-47.623 0,-53.8525 43.6475,-97.5 97.5,-97.5 53.853,0 97.5,43.6475 97.5,97.5 0,53.853 -43.647,97.5 -97.5,97.5 -17.312,0 -33.54,-4.561 -47.6233,-12.469 l -49.8767,12.469 z"
         id="path29" /><path
         style="color:#000000;clip-rule:evenodd;fill:#ffffff;fill-rule:evenodd;stroke-linecap:round;stroke-linejoin:round;-inkscape-stroke:none"
         d="m 1433.9414,645.56055 c -57.9049,0 -105,47.09505 -105,105 0,17.492 4.4667,33.92087 12.041,48.41601 l -11.8183,47.26367 a 7.50075,7.50075 0 0 0 9.0957,9.09571 l 47.2656,-11.81641 c 14.4951,7.57369 30.9242,12.04102 48.416,12.04102 57.9054,0 105,-47.09464 105,-105 0,-57.9049 -47.0946,-105 -105,-105 z m 0,15 c 49.8005,0 90,40.2 90,90 0,49.80053 -40.1995,90 -90,90 -15.9947,0 -30.9391,-4.20326 -43.9512,-11.50977 a 7.50075,7.50075 0 0 0 -5.4922,-0.73633 l -37.75,9.4375 9.4375,-37.75 a 7.50075,7.50075 0 0 0 -0.7363,-5.49023 c -7.3068,-13.01164 -11.5078,-27.95643 -11.5078,-43.95117 0,-49.79995 40.2001,-90 90,-90 z"
         id="path30" /></g><path
       style="color:#000000;fill:#24786d;stroke-linecap:round;stroke-linejoin:round;-inkscape-stroke:none"
       d="m -3395.9667,437.59015 c -2.6315,2e-4 -5.2621,0.9789 -7.2188,2.9356 a 7.5,7.5 0 0 0 -0.01,0.02 7.5,7.5 0 0 0 -0.019,0.01 c -3.8857,3.9264 -3.8878,10.4619 0,14.3887 a 7.50075,7.50075 0 0 0 0.024,0.023 c 3.912,3.9157 10.5316,3.9136 14.4433,0 3.9134,-3.9135 3.9113,-10.5264 0,-14.4395 -1.9566,-1.9547 -4.5893,-2.9337 -7.2207,-2.9336 z m 3.3886,13.543 c -0.8319,0.8319 -1.9725,1.2337 -3.1269,1.293 a 7.5,7.5 0 0 0 3.1269,-1.293 z"
       id="path2-5" /><path
       style="color:#000000;fill:#24786d;stroke-linecap:round;stroke-linejoin:round;-inkscape-stroke:none"
       d="m -3439.2968,437.59215 c -2.6314,0 -5.2645,0.9767 -7.2207,2.9316 a 7.5,7.5 0 0 0 -0.01,0.022 7.5,7.5 0 0 0 -0.022,0.01 c -3.8852,3.9267 -3.8873,10.4617 0,14.3887 a 7.50075,7.50075 0 0 0 0.025,0.025 c 3.9105,3.9116 10.53,3.9122 14.4414,0 v 0 c 3.9139,-3.9126 3.9126,-10.5297 0,-14.4414 -1.9562,-1.955 -4.5873,-2.9316 -7.2187,-2.9316 z m 3.3828,13.541 c -0.8318,0.8312 -1.9712,1.2366 -3.127,1.2949 a 7.5,7.5 0 0 0 3.127,-1.2949 z"
       id="path3-5" /><path
       style="color:#000000;fill:#24786d;stroke-linecap:round;stroke-linejoin:round;-inkscape-stroke:none"
       d="m -3352.6328,437.59215 c -2.6313,0 -5.263,0.9778 -7.2187,2.9316 a 7.5,7.5 0 0 0 -0.01,0.022 7.5,7.5 0 0 0 -0.022,0.01 c -3.8857,3.9264 -3.8878,10.4619 0,14.3887 a 7.50075,7.50075 0 0 0 0.025,0.025 c 3.9094,3.9094 10.5292,3.91 14.4395,0 v 0 c 3.9145,-3.9122 3.9133,-10.5301 0,-14.4414 -1.9557,-1.9539 -4.5875,-2.9316 -7.2188,-2.9316 z m 3.3829,13.543 c -0.8311,0.8302 -1.9711,1.2347 -3.127,1.2929 a 7.5,7.5 0 0 0 3.127,-1.2929 z"
       id="path4-2" /><path
       style="color:#000000;clip-rule:evenodd;fill:#ffffff;fill-rule:evenodd;stroke-linecap:round;stroke-linejoin:round;-inkscape-stroke:none"
       d="m -345.45716,-226.41367 c -22.2088,0 -40.3848,18.17594 -40.3848,40.38476 v 64.61523 c 0,22.208821 18.176,40.384761 40.3848,40.384761 22.2088,0 40.3847,-18.17594 40.3847,-40.384761 v -64.61523 c 0,-22.20882 -18.1759,-40.38476 -40.3847,-40.38476 z m 0,16.15429 c 13.4803,0 24.2304,10.75009 24.2304,24.23047 v 64.61523 c 0,13.48037 -10.7501,24.230471 -24.2304,24.230471 -13.4804,0 -24.2305,-10.750101 -24.2305,-24.230471 v -64.61523 c 0,-13.48038 10.7501,-24.23047 24.2305,-24.23047 z"
       id="path1-87" /><path
       style="color:#000000;fill:#ffffff;stroke-linecap:round;stroke-linejoin:round;-inkscape-stroke:none"
       d="m -410.07246,-151.02892 a 8.0768995,8.0768995 0 0 0 -8.0761,8.07617 v 21.53907 c 0,40.053401 32.6379,72.691401 72.6914,72.691401 40.0534,0 72.6933,-32.63798 72.6933,-72.691401 v -21.53907 a 8.0768995,8.0768995 0 0 0 -8.0781,-8.07617 8.0768995,8.0768995 0 0 0 -8.0762,8.07617 v 21.53907 c 0,31.324971 -25.2141,56.539061 -56.539,56.539061 -31.3251,0 -56.5391,-25.21408 -56.5391,-56.539061 v -21.53907 a 8.0768995,8.0768995 0 0 0 -8.0762,-8.07617 z"
       id="path2-0" /><path
       style="color:#000000;fill:#ffffff;stroke-linecap:round;stroke-linejoin:round;-inkscape-stroke:none"
       d="m -345.45716,-64.874619 a 8.0768995,8.0768995 0 0 0 -8.0762,8.07617 v 32.30664 a 8.0768995,8.0768995 0 0 0 8.0762,8.07813 8.0768995,8.0768995 0 0 0 8.0762,-8.07813 v -32.30664 a 8.0768995,8.0768995 0 0 0 -8.0762,-8.07617 z"
       id="path3-7" /><path
       style="color:#000000;fill:#ffffff;stroke-linecap:round;stroke-linejoin:round;-inkscape-stroke:none"
       d="m -390.47086,-32.567979 a 8.0768995,8.0768995 0 0 0 -8.0781,8.07617 8.0768995,8.0768995 0 0 0 8.0781,8.07813 h 90.0293 a 8.0768995,8.0768995 0 0 0 8.0781,-8.07813 8.0768995,8.0768995 0 0 0 -8.0781,-8.07617 z"
       id="path4-68" /><path
       style="color:#000000;fill:#797c7b;stroke-linecap:round;stroke-linejoin:round;-inkscape-stroke:none"
       d="m -1492.1132,-592.9185 c -6.9359,0.033 -12.7325,5.827 -12.7325,12.7851 0,6.9508 5.8226,12.7812 12.793,12.7598 6.9481,-0.011 12.7559,-5.8229 12.7559,-12.7715 a 8.5159502,8.5159502 0 0 0 0,-0.01 c 0,-6.9552 -5.8459,-12.7617 -12.7754,-12.7617 a 8.5168018,8.5168018 0 0 0 -0.041,0 z m -3.0645,9.9922 a 8.5159502,8.5159502 0 0 0 -1.1504,2.7734 c 0,-1.044 0.4634,-2.0122 1.1504,-2.7734 z m -1.1504,2.7773 a 8.5159502,8.5159502 0 0 0 1.1426,2.7559 c -0.6796,-0.761 -1.1403,-1.7216 -1.1426,-2.7559 z"
       id="path1-14" /><path
       style="color:#000000;clip-rule:evenodd;fill:#797c7b;fill-rule:evenodd;stroke-linecap:round;stroke-linejoin:round;-inkscape-stroke:none"
       d="m -1492,-654.9459 c -19.1679,0 -38.3365,7.3006 -52.9062,21.9024 -20.1025,20.1501 -26.1246,48.95 -18.4746,74.5078 l -61.3926,61.53121 a 8.5168018,8.5168018 0 0 0 -2.4883,6.0157 v 37.5273 a 8.5168018,8.5168018 0 0 0 8.5157,8.5156 h 37.4472 a 8.5168018,8.5168018 0 0 0 6.0313,-2.5039 l 15.6015,-15.6465 a 8.5168018,8.5168018 0 0 0 2.4844,-6.0117 v -12.332 h 8.1191 a 8.5168018,8.5168018 0 0 0 8.5157,-8.5156 v -8.1641 h 12.2851 a 8.5168018,8.5168018 0 0 0 6.0293,-2.5 l 8.0508,-8.0684 c 25.6965,7.9867 54.7936,1.9626 75.084,-18.3515 29.1372,-29.21411 29.1394,-76.79661 0,-106.00001 -14.5698,-14.6018 -33.7383,-21.9024 -52.9063,-21.9024 z m 0,16.918 c 14.7653,0 29.531,5.6702 40.8496,17.0137 22.6357,22.6854 22.6365,59.238 0,81.93751 -16.8994,16.9191 -41.4715,21.1119 -62.2598,12.8144 a 8.5168018,8.5168018 0 0 0 -9.1855,1.8926 l -9.1992,9.2187 h -17.2696 a 8.5168018,8.5168018 0 0 0 -8.5156,8.5157 v 8.164 h -8.1191 a 8.5168018,8.5168018 0 0 0 -8.5157,8.5157 v 17.3261 l -10.6191,10.6524 h -25.3984 v -25.4903 l 62.4961,-62.6367 a 8.5168018,8.5168018 0 0 0 1.9179,-9.07421 c -7.9815,-20.7361 -3.7553,-45.0721 12.9688,-61.8359 11.3185,-11.3428 26.0828,-17.0137 40.8476,-17.0137 z"
       id="path2-3" /><path
       style="color:#000000;fill:#797c7b;stroke-linecap:round;-inkscape-stroke:none"
       d="m -1960.5205,-278.41896 c -25.5367,0 -46.3965,20.85983 -46.3965,46.39649 v 117.20894 c 0,25.536402 20.8597,46.394602 46.3965,46.394602 h 117.209 c 25.5364,0 46.3945,-20.8581 46.3945,-46.394602 v -39.1015 -78.10744 c 0,-25.53675 -20.8582,-46.39649 -46.3945,-46.39649 z m 0,14.65235 h 117.209 c 17.6181,0 31.7441,14.12564 31.7441,31.74414 v 63.83784 l -17.1015,-12.31246 c -17.6795,-12.7294 -41.9517,-11.4073 -58.1446,3.16602 l -40.0058,36.00394 c -11.1323,10.019 -27.6311,10.919 -39.7852,2.1679 l -25.6601,-18.4765 v -74.38674 c 0,-17.61859 14.1255,-31.74414 31.7441,-31.74414 z m 24.418,24.41797 c -17.4451,0 -31.7442,14.29909 -31.7442,31.74414 0,17.44505 14.2991,31.74413 31.7442,31.74413 17.445,0 31.7441,-14.29908 31.7441,-31.74413 0,-17.44505 -14.2991,-31.74414 -31.7441,-31.74414 z m 0,14.65039 c 9.5269,0 17.0937,7.56681 17.0937,17.09375 0,9.52693 -7.5668,17.09375 -17.0937,17.09375 -9.527,0 -17.0938,-7.56682 -17.0938,-17.09375 0,-9.52694 7.5668,-17.09375 17.0938,-17.09375 z m 78.5976,50.13476 c 7.0352,-0.38317 14.1983,1.57951 20.2754,5.95508 l 25.6621,18.47658 v 35.3183 c 0,17.618102 -14.1261,31.744202 -31.7441,31.744202 h -117.209 c -17.6185,0 -31.7441,-14.126 -31.7441,-31.744202 v -24.7675 l 17.0996,12.3105 c 17.6794,12.7295 41.9538,11.4074 58.1465,-3.166 l 40.0058,-36.0039 c 5.5663,-5.00957 12.4726,-7.73989 19.5078,-8.12306 z"
       id="path1-69" /><path
       style="color:#000000;clip-rule:evenodd;fill:#24786d;fill-rule:evenodd;stroke-linecap:round;stroke-linejoin:round;-inkscape-stroke:none"
       d="m -3101.5799,99.008465 c -57.905,0 -105,47.095055 -105,104.999995 0,57.90542 47.0951,105.00001 105,105.00001 17.4913,0 33.9194,-4.46767 48.414,-12.04101 l 47.2657,11.8164 a 7.50075,7.50075 0 0 0 9.0957,-9.09375 l -11.8164,-47.26562 c 7.5738,-14.495 12.041,-30.92404 12.041,-48.41603 0,-57.9049 -47.0946,-104.999995 -105,-104.999995 z m 0,14.999995 c 49.8005,0 90,40.20001 90,90 0,15.99469 -4.2033,30.93943 -11.5098,43.95118 a 7.50075,7.50075 0 0 0 -0.7363,5.49024 l 9.4375,37.75195 -37.75,-9.43945 a 7.50075,7.50075 0 0 0 -5.4903,0.73633 c -13.0117,7.30646 -27.9564,11.50976 -43.9511,11.50976 -49.8,0 -90,-40.19952 -90,-90.00001 0,-49.79994 40.2,-90 90,-90 z"
       id="path1-5" /><path
       style="color:#000000;fill:#24786d;stroke-linecap:round;stroke-linejoin:round;-inkscape-stroke:none"
       d="m -3101.5819,199.26823 c -2.6314,1.2e-4 -5.262,0.97884 -7.2187,2.93554 a 7.5,7.5 0 0 0 -0.01,0.0195 7.5,7.5 0 0 0 -0.02,0.008 c -3.8857,3.92637 -3.8878,10.46191 0,14.38867 a 7.50075,7.50075 0 0 0 0.024,0.0234 c 3.9121,3.91575 10.5316,3.91368 14.4433,0.002 3.9135,-3.91342 3.9114,-10.52638 0,-14.43945 a 7.50075,7.50075 0 0 0 0,-0.004 c -1.9565,-1.95469 -4.5892,-2.93371 -7.2207,-2.93359 z m 3.3887,13.54297 c -0.8319,0.83189 -1.9725,1.23364 -3.127,1.29296 a 7.5,7.5 0 0 0 3.127,-1.29296 z"
       id="path2-50" /><path
       style="color:#000000;fill:#24786d;stroke-linecap:round;stroke-linejoin:round;-inkscape-stroke:none"
       d="m -3144.9139,199.27018 c -2.6314,1e-5 -5.2624,0.97639 -7.2188,2.93164 a 7.5,7.5 0 0 0 -0.01,0.0215 7.5,7.5 0 0 0 -0.021,0.008 c -3.8855,3.9265 -3.8876,10.46178 0,14.38867 a 7.50075,7.50075 0 0 0 0.023,0.0254 c 3.9107,3.91218 10.5298,3.91241 14.4414,0.002 v -0.002 c 3.9136,-3.91276 3.9124,-10.52758 0,-14.43945 a 7.50075,7.50075 0 0 0 0,-0.004 c -1.9563,-1.95505 -4.5873,-2.93165 -7.2187,-2.93164 z m 3.3848,13.54102 c -0.8315,0.83102 -1.9719,1.23615 -3.127,1.29492 a 7.5,7.5 0 0 0 3.127,-1.29492 z"
       id="path3-1" /><path
       style="color:#000000;fill:#24786d;stroke-linecap:round;stroke-linejoin:round;-inkscape-stroke:none"
       d="m -3058.2459,199.26823 c -2.6315,-1.2e-4 -5.2623,0.9789 -7.2188,2.93359 a 7.5,7.5 0 0 0 -0.01,0.0195 7.5,7.5 0 0 0 -0.023,0.01 c -3.8857,3.92637 -3.8858,10.46191 0,14.38867 a 7.50075,7.50075 0 0 0 0.023,0.0254 c 3.91,3.91001 10.5267,3.91256 14.4395,0.002 3.9157,-3.91207 3.9156,-10.53163 0,-14.44336 -1.9567,-1.9567 -4.5893,-2.93542 -7.2207,-2.93554 z m 3.3828,13.54492 c -0.8309,0.83009 -1.9706,1.23394 -3.125,1.29297 a 7.5,7.5 0 0 0 3.125,-1.29297 z"
       id="path4-4" /><path
       style="color:#000000;fill:#000e08;stroke-linecap:round;stroke-linejoin:round;-inkscape-stroke:none"
       d="m -356.14925,13.419787 c -25.53666,0 -46.39453,20.85787 -46.39453,46.394529 v 58.605464 c 0,25.53635 20.85778,46.39454 46.39453,46.39454 25.53644,0 46.39453,-20.8581 46.39453,-46.39454 V 59.814316 c 0,-25.536749 -20.85818,-46.394529 -46.39453,-46.394529 z m 0,14.65039 c 17.61813,0 31.74414,14.12564 31.74414,31.744139 v 58.605464 c 0,17.61804 -14.1261,31.74414 -31.74414,31.74414 -17.61849,0 -31.74414,-14.12601 -31.74414,-31.74414 V 59.814316 c 0,-17.618579 14.12556,-31.744139 31.74414,-31.744139 z m -68.37305,73.255853 a 7.3256001,7.3256001 0 0 0 -7.32421,7.32617 v 9.76758 c 0,39.24693 30.07442,71.62352 68.37109,75.32618 v 15.02344 h -21.97656 a 7.3256001,7.3256001 0 0 0 -7.32618,7.32422 7.3256001,7.3256001 0 0 0 7.32618,7.32617 h 29.30273 29.30274 a 7.3256001,7.3256001 0 0 0 7.32421,-7.32617 7.3256001,7.3256001 0 0 0 -7.32421,-7.32422 h -21.97657 v -15.02344 c 38.29674,-3.70266 68.3711,-36.07927 68.3711,-75.32618 v -9.76758 a 7.3256001,7.3256001 0 0 0 -7.32618,-7.32617 7.3256001,7.3256001 0 0 0 -7.32421,7.32617 v 9.76758 c 0,33.80187 -27.24502,61.04689 -61.04688,61.04689 -33.80175,0 -61.04687,-27.24504 -61.04687,-61.04689 v -9.76758 a 7.3256001,7.3256001 0 0 0 -7.32618,-7.32617 z"
       id="path1-3" /><path
       d="m -2844.9702,100.04908 c -3.1013,-3.101193 -8.1293,-3.101193 -11.2305,0 -3.1013,3.10119 -3.1013,8.12933 0,11.23052 z m 163.475,185.93673 c 3.1012,3.10129 8.1296,3.10129 11.2309,0 3.1013,-3.1013 3.1013,-8.12966 0,-11.23095 z m -26.1371,-26.79143 c 4.3867,0 7.9412,-3.55554 7.9412,-7.94119 0,-4.3867 -3.5545,-7.94118 -7.9412,-7.94118 z m 4.4883,-95.53549 -7.8914,0.89556 z m 4.3402,38.24145 7.8903,-0.89471 z m -129.8014,0 -7.8906,-0.89471 z m 4.3403,-38.24145 7.8906,0.89556 z m -12.7407,57.23464 -6.0469,-5.14695 v 0 z m 146.6025,0 6.0469,-5.14695 v 0 z m -51.2694,-101.89658 h -7.9411 c 0,3.39437 2.1568,6.41351 5.3682,7.51299 z m -44.064,0 2.5724,7.51299 c 3.2113,-1.09948 5.3688,-4.11862 5.3688,-7.51299 z m 91.726,112.76329 c 0.2287,4.38036 3.9652,7.7453 8.3445,7.51659 4.3804,-0.2287 7.7453,-3.96423 7.5166,-8.34459 z m -104.2808,-116.00351 c -3.8904,2.02479 -5.403,6.82 -3.3782,10.71043 2.0247,3.89044 6.8199,5.40297 10.7104,3.37818 z m -11.142,30.25559 c 2.4573,-3.63272 1.5045,-8.5697 -2.1282,-11.02702 -3.6326,-2.45732 -8.5696,-1.50459 -11.027,2.12813 z m 82.2826,127.43912 c 1.5385,-4.10717 -0.5421,-8.68447 -4.6493,-10.22294 -4.1072,-1.53953 -8.6834,0.54211 -10.2229,4.64929 z m -58.2354,-5.57365 c -1.5392,-4.10718 -6.1162,-6.18882 -10.2231,-4.64929 -4.1068,1.53847 -6.1884,6.11577 -4.6492,10.22294 z m -70.8146,-156.59819 174.7055,174.70621 11.2309,-11.23095 -174.7059,-174.70578 z m 148.5684,132.03241 h -112.1451 v 15.88237 h 112.1451 z m -3.4031,-78.75756 4.3412,38.24166 15.7807,-1.79048 -4.3401,-38.24229 z m -109.6792,38.24166 4.3403,-38.24166 -15.781,-1.79111 -4.3405,38.24229 z m -10.244,23.24542 c 5.6842,-6.678 9.2751,-14.70918 10.244,-23.24542 l -15.7812,-1.79048 c -0.5945,5.23907 -2.8136,10.34366 -6.5567,14.74095 z m 124.2644,-23.24542 c 0.9688,8.53624 4.5593,16.56742 10.2431,23.24542 l 12.0949,-10.29495 c -3.744,-4.39729 -5.9622,-9.50188 -6.5573,-14.74095 z m -113.0832,40.5159 c -6.129,0 -10.4015,-3.02506 -12.3551,-6.46729 -1.8753,-3.3046 -1.8548,-7.24554 1.1739,-10.80319 l -12.0939,-10.29495 c -7.619,8.95025 -7.8575,20.18861 -2.8932,28.93661 4.886,8.61036 14.5513,14.51119 26.1683,14.51119 z m 86.0461,-124.31506 v -1.00663 h -15.8823 v 1.00663 z m 38.4777,43.76639 c -2.7445,-24.17624 -20.6672,-43.34318 -43.847,-51.27939 l -5.1448,15.02599 c 18.4087,6.30297 31.2734,20.97922 33.21,38.04451 z m -82.5417,-43.76639 v -1.00663 h -15.8824 v 1.00663 z m 14.0908,-15.09735 c 7.7824,0 14.0909,6.30868 14.0909,14.09072 h 15.8823 c 0,-16.55366 -13.4195,-29.973093 -29.9732,-29.973093 z m 0,-15.882373 c -16.5537,0 -29.9732,13.419433 -29.9732,29.973093 h 15.8824 c 0,-7.78204 6.3085,-14.09072 14.0908,-14.09072 z m 85.5551,142.915013 c -0.2806,-5.37459 -2.3421,-10.64542 -6.2068,-15.18566 l -12.0949,10.29495 c 1.6824,1.97577 2.3484,3.9473 2.4406,5.71871 z m -112.8097,-101.0869 c 2.472,-1.28647 5.0776,-2.40491 7.795,-3.3354 l -5.1447,-15.02599 c -3.4637,1.18589 -6.8007,2.61689 -9.9825,4.27278 z m -25.4152,34.70911 c 0.7609,-6.70458 3.1799,-12.98193 6.941,-18.54213 l -13.1552,-8.89889 c -5.1131,7.55884 -8.5005,16.25411 -9.5668,25.64991 z m 74.3514,103.32334 c -3.0314,8.08942 -11.4205,14.25707 -21.6816,14.25707 v 15.88236 c 16.6236,0 31.1083,-10.03659 36.5538,-24.56578 z m -21.6816,14.25707 c -10.2621,0 -18.65,-6.16765 -21.6816,-14.25707 l -14.8723,5.57365 c 5.4451,14.52919 19.9296,24.56578 36.5539,24.56578 z"
       fill="#ffffff"
       id="path1-63"
       style="stroke-width:10.5882" /><path
       d="m -1806.9878,223.29982 -7.8914,0.8955 z m 4.3401,38.24149 7.8904,-0.8947 v 0 z m -129.8013,0 -7.8906,-0.8947 v 0 z m 4.3403,-38.24139 7.8904,0.8955 z m -12.7407,57.23459 -6.0471,-5.147 v 0 z m 146.6014,0 -6.047,5.148 z m -51.2683,-101.89659 h -7.9412 c 0,3.3944 2.1568,6.4135 5.3683,7.513 z m -44.064,0 2.5723,7.513 c 3.2114,-1.0995 5.3689,-4.1186 5.3689,-7.513 z m 58.5858,154.45449 c 1.5384,-4.1072 -0.5421,-8.6845 -4.6493,-10.2229 -4.1072,-1.5396 -8.6845,0.5421 -10.223,4.6493 z m -58.2356,-5.5736 c -1.5391,-4.1072 -6.1161,-6.1889 -10.2229,-4.6493 -4.1069,1.5384 -6.1884,6.1157 -4.6493,10.2229 z m 77.7539,-24.5658 h -112.145 v 15.8823 h 112.145 z m -3.403,-78.75769 4.3412,38.24179 15.7807,-1.7905 -4.3401,-38.24239 z m -109.6794,38.24179 4.3403,-38.24169 -15.781,-1.7911 -4.3403,38.24229 z m -10.2438,23.2454 c 5.6842,-6.678 9.275,-14.7092 10.2438,-23.2454 l -15.781,-1.7905 c -0.5947,5.2391 -2.8136,10.3437 -6.5569,14.7409 z m 124.2644,-23.2454 c 0.9688,8.5362 4.5593,16.5674 10.243,23.2454 l 12.095,-10.295 c -3.744,-4.3972 -5.9623,-9.5018 -6.5573,-14.7409 z m -113.0832,40.5159 c -6.1291,0 -10.4016,-3.0251 -12.3552,-6.4673 -1.8752,-3.3046 -1.8548,-7.2456 1.174,-10.8032 l -12.0941,-10.295 c -7.6189,8.9503 -7.8573,20.1887 -2.893,28.9367 4.8858,8.6103 14.5513,14.5111 26.1683,14.5111 z m 112.145,15.8823 c 11.6175,0 21.2824,-5.9008 26.1689,-14.5111 4.9637,-8.748 4.7255,-19.9864 -2.8927,-28.9367 l -12.095,10.295 c 3.0293,3.5576 3.0494,7.4986 1.1743,10.8032 -1.9536,3.4422 -6.2259,6.4673 -12.3555,6.4673 z m -26.0989,-140.19739 v -1.0066 h -15.8824 v 1.0066 z m 38.4777,43.7663 c -2.7445,-24.1761 -20.6683,-43.3431 -43.847,-51.2793 l -5.1448,15.026 c 18.4087,6.303 31.2734,20.9792 33.21,38.0444 z m -82.5417,-43.7663 v -1.0066 h -15.8824 v 1.0066 z m -38.5792,45.5575 c 1.937,-17.0653 14.8017,-31.7415 33.2103,-38.0445 l -5.1447,-15.026 c -23.1791,7.9362 -41.1026,27.1032 -43.8466,51.2794 z m 52.67,-60.6548 c 7.7823,0 14.0908,6.3086 14.0908,14.0907 h 15.8824 c 0,-16.5537 -13.4196,-29.9731 -29.9732,-29.9731 z m 0,-15.8824 c -16.5539,0 -29.9732,13.4194 -29.9732,29.9731 h 15.8824 c 0,-7.7821 6.3084,-14.0907 14.0908,-14.0907 z m 21.6815,179.86059 c -3.0314,8.0894 -11.4204,14.257 -21.6815,14.257 v 15.8824 c 16.6235,0 31.1082,-10.0366 36.5538,-24.5658 z m -21.6815,14.257 c -10.2621,0 -18.65,-6.1676 -21.6818,-14.257 l -14.8722,5.5736 c 5.4451,14.5292 19.9296,24.5658 36.554,24.5658 z"
       fill="#ffffff"
       id="path1-97"
       style="stroke-width:10.5882" /><path
       d="m -525.20172,-70.271646 -113.28719,64.7356303 c -26.8029,15.31598 -60.1519,-4.03857 -60.1519,-34.9077503 v -64.735824 -64.73583 c 0,-30.86998 33.349,-50.22332 60.1519,-34.90734 l 113.28719,64.73563 c 27.0095,15.43438 27.0095,54.380894 0,69.815484 z"
       fill="#20a090"
       id="path1-58"
       style="stroke-width:20.1024" /><path
       style="color:#000000;clip-rule:evenodd;fill:#24786d;fill-rule:evenodd;stroke-linecap:round;stroke-linejoin:round;-inkscape-stroke:none"
       d="m -2516.062,456.44482 a 7.6837183,7.6837183 0 0 0 -7.6836,7.68359 v 40.97461 a 7.6837183,7.6837183 0 0 0 7.6836,7.68359 h 40.9766 a 7.6837183,7.6837183 0 0 0 7.6816,-7.68359 v -40.97461 a 7.6837183,7.6837183 0 0 0 -7.6816,-7.68359 z m 7.6836,15.36523 h 25.6094 v 25.61133 h -25.6094 z"
       id="path1-25" /><path
       style="color:#000000;clip-rule:evenodd;fill:#24786d;fill-rule:evenodd;stroke-linecap:round;stroke-linejoin:round;-inkscape-stroke:none"
       d="m -2516.062,538.39598 a 7.6837183,7.6837183 0 0 0 -7.6836,7.68359 v 40.97461 a 7.6837183,7.6837183 0 0 0 7.6836,7.6836 h 40.9766 a 7.6837183,7.6837183 0 0 0 7.6816,-7.6836 v -40.97461 a 7.6837183,7.6837183 0 0 0 -7.6816,-7.68359 z m 7.6836,15.36523 h 25.6094 v 25.61133 h -25.6094 z"
       id="path2-08" /><path
       style="color:#000000;clip-rule:evenodd;fill:#24786d;fill-rule:evenodd;stroke-linecap:round;stroke-linejoin:round;-inkscape-stroke:none"
       d="m -2434.1108,456.44482 a 7.6837183,7.6837183 0 0 0 -7.6836,7.68359 v 40.97461 a 7.6837183,7.6837183 0 0 0 7.6836,7.68359 h 40.9766 a 7.6837183,7.6837183 0 0 0 7.6816,-7.68359 v -40.97461 a 7.6837183,7.6837183 0 0 0 -7.6816,-7.68359 z m 7.6836,15.36523 h 25.6094 v 25.61133 h -25.6094 z"
       id="path3-77" /><path
       style="color:#000000;fill:#24786d;stroke-linecap:round;stroke-linejoin:round;-inkscape-stroke:none"
       d="m -2413.6225,558.42332 c -2.1087,0 -4.2175,0.7783 -5.7813,2.33399 a 7.6837183,7.6837183 0 0 0 -0.014,0.0137 c -3.1442,3.1434 -3.1442,8.4484 0,11.5918 a 7.6837183,7.6837183 0 0 0 0.014,0.0117 c 3.1276,3.11138 8.435,3.11138 11.5625,0 a 7.6837183,7.6837183 0 0 0 0.014,-0.0137 c 1.8442,-1.84461 2.474,-4.41114 2.1543,-6.86914 a 7.68295,7.68295 0 0 0 -0.2285,-1.20312 c -0.1134,-0.40004 -0.2089,-0.78337 -0.3828,-1.16407 a 7.68295,7.68295 0 0 0 -1.5235,-2.32031 c -0.01,-0.009 -0.011,-0.0223 -0.02,-0.0312 a 7.68295,7.68295 0 0 0 0,-0.002 7.68295,7.68295 0 0 0 -0.01,-0.0137 c -1.5638,-1.55569 -3.6725,-2.33399 -5.7812,-2.33399 z m -5.8867,4.32032 a 7.68295,7.68295 0 0 0 -0.9551,2.30273 c 0.175,-0.82517 0.4953,-1.57798 0.9551,-2.30273 z m -1.2071,4.0039 a 7.68295,7.68295 0 0 0 2.0235,4.88867 c -1.3261,-1.32637 -1.9791,-3.10231 -2.0235,-4.88867 z m 2.0371,4.9043 a 7.68295,7.68295 0 0 0 4.8516,1.99414 c -1.7759,-0.0494 -3.5402,-0.68957 -4.8516,-1.99414 z m 8.8848,0.79687 c -0.7081,0.44806 -1.4423,0.76474 -2.25,0.94141 a 7.68295,7.68295 0 0 0 2.25,-0.94141 z"
       id="path4-3" /><path
       style="color:#000000;fill:#24786d;stroke-linecap:round;stroke-linejoin:round;-inkscape-stroke:none"
       d="m -2434.1108,537.93699 c -2.1086,0 -4.2174,0.77639 -5.7812,2.33204 a 7.6837183,7.6837183 0 0 0 -0.014,0.0137 c -3.1439,3.14324 -3.1439,8.44855 0,11.59179 a 7.6837183,7.6837183 0 0 0 0.014,0.0137 c 3.1276,3.11129 8.4348,3.11129 11.5625,0 a 7.6837183,7.6837183 0 0 0 0.016,-0.0156 c 1.8453,-1.84585 2.4738,-4.4135 2.1523,-6.87305 a 7.68295,7.68295 0 0 0 -0.2265,-1.19335 c -0.1138,-0.40244 -0.2098,-0.789 -0.3848,-1.17188 a 7.68295,7.68295 0 0 0 -1.5039,-2.29297 c -0.016,-0.0166 -0.021,-0.0401 -0.037,-0.0566 a 7.68295,7.68295 0 0 0 -0.01,-0.002 7.68295,7.68295 0 0 0 -0.01,-0.0137 c -1.5639,-1.55565 -3.6727,-2.33204 -5.7813,-2.33204 z m -5.8848,4.31641 a 7.68295,7.68295 0 0 0 -0.955,2.30274 c 0.1752,-0.82482 0.4953,-1.57837 0.955,-2.30274 z m -1.2089,4.00781 a 7.68295,7.68295 0 0 0 2.0234,4.88672 c -1.3259,-1.32626 -1.979,-3.10042 -2.0234,-4.88672 z m 2.039,4.90235 a 7.68295,7.68295 0 0 0 4.8516,1.99414 c -1.7765,-0.049 -3.5397,-0.68913 -4.8516,-1.99414 z m 8.8828,0.79883 c -0.7076,0.44751 -1.4429,0.76291 -2.25,0.93945 a 7.68295,7.68295 0 0 0 2.25,-0.93945 z"
       id="path5" /><path
       style="color:#000000;fill:#24786d;stroke-linecap:round;stroke-linejoin:round;-inkscape-stroke:none"
       d="m -2434.1108,578.9116 c -2.1086,0 -4.2174,0.77834 -5.7812,2.33399 a 7.6837183,7.6837183 0 0 0 -0.014,0.0137 c -3.1439,3.14324 -3.1439,8.4466 0,11.58984 a 7.6837183,7.6837183 0 0 0 0.014,0.0137 c 3.1276,3.11129 8.4348,3.11129 11.5625,0 a 7.6837183,7.6837183 0 0 0 0.016,-0.0137 c 1.8453,-1.84585 2.4738,-4.41545 2.1523,-6.875 a 7.68295,7.68295 0 0 0 -0.2265,-1.1914 c -0.1139,-0.40315 -0.2095,-0.7903 -0.3848,-1.17383 a 7.68295,7.68295 0 0 0 -1.5039,-2.29102 c -0.016,-0.0166 -0.021,-0.0401 -0.037,-0.0566 a 7.68295,7.68295 0 0 0 -0.01,-0.002 7.68295,7.68295 0 0 0 -0.01,-0.0137 c -1.5639,-1.55565 -3.6727,-2.33399 -5.7813,-2.33399 z m -5.8848,4.31641 a 7.68295,7.68295 0 0 0 -0.955,2.30273 c 0.1753,-0.82471 0.4952,-1.57848 0.955,-2.30273 z m -1.2089,4.00977 a 7.68295,7.68295 0 0 0 2.0234,4.88671 c -1.3254,-1.32578 -1.9786,-3.10107 -2.0234,-4.88671 z m 2.039,4.90039 a 7.68295,7.68295 0 0 0 4.8594,1.99804 c -1.7792,-0.0471 -3.5455,-0.69104 -4.8594,-1.99804 z m 8.877,0.80078 c -0.7068,0.44612 -1.4403,0.76145 -2.2461,0.9375 a 7.68295,7.68295 0 0 0 2.2461,-0.9375 z"
       id="path6" /><path
       style="color:#000000;fill:#24786d;stroke-linecap:round;stroke-linejoin:round;-inkscape-stroke:none"
       d="m -2393.1342,578.9116 c -2.1087,0 -4.2175,0.77834 -5.7813,2.33399 a 7.6837183,7.6837183 0 0 0 -0.014,0.0137 c -3.1438,3.14324 -3.1438,8.4466 0,11.58984 a 7.6837183,7.6837183 0 0 0 0.014,0.0137 c 3.1277,3.11129 8.4329,3.11129 11.5606,0 a 7.6837183,7.6837183 0 0 0 0.016,-0.0137 c 1.8428,-1.84337 2.4724,-4.40864 2.1543,-6.86523 a 7.68295,7.68295 0 0 0 -0.2305,-1.21094 c -0.1134,-0.3998 -0.2089,-0.78359 -0.3828,-1.16406 a 7.68295,7.68295 0 0 0 -1.5039,-2.29102 c -0.016,-0.0166 -0.021,-0.0401 -0.037,-0.0566 a 7.68295,7.68295 0 0 0 -0.01,-0.002 7.68295,7.68295 0 0 0 -0.01,-0.0137 c -1.5639,-1.55565 -3.6707,-2.33399 -5.7793,-2.33399 z m -5.8848,4.3125 a 7.68295,7.68295 0 0 0 -0.957,2.31055 c 0.1755,-0.82751 0.4952,-1.58417 0.957,-2.31055 z m -1.209,4.01368 a 7.68295,7.68295 0 0 0 2.0215,4.88671 c -1.3254,-1.32577 -1.9766,-3.10108 -2.0215,-4.88671 z m 2.0371,4.90039 a 7.68295,7.68295 0 0 0 4.8594,1.99804 c -1.7785,-0.0476 -3.546,-0.69151 -4.8594,-1.99804 z m 8.8789,0.80078 c -0.7069,0.44635 -1.44,0.76139 -2.2461,0.9375 a 7.68295,7.68295 0 0 0 2.2461,-0.9375 z"
       id="path7" /><path
       style="color:#000000;fill:#24786d;stroke-linecap:round;stroke-linejoin:round;-inkscape-stroke:none"
       d="m -2413.392,420.5913 a 7.68295,7.68295 0 0 0 -7.6836,7.6836 7.68295,7.68295 0 0 0 7.6836,7.68164 h 35.6289 c 7.1709,0 12.8046,5.63375 12.8046,12.80468 v 35.62891 a 7.68295,7.68295 0 0 0 7.6817,7.68359 7.68295,7.68295 0 0 0 7.6836,-7.68359 v -35.62891 c 0,-15.46806 -12.7019,-28.16992 -28.1699,-28.16992 z"
       id="path8" /><path
       style="color:#000000;fill:#24786d;stroke-linecap:round;stroke-linejoin:round;-inkscape-stroke:none"
       d="m -2531.4272,420.5913 c -15.4681,0 -28.1719,12.70191 -28.1719,28.16992 v 35.62891 a 7.68295,7.68295 0 0 0 7.6836,7.68359 7.68295,7.68295 0 0 0 7.6836,-7.68359 v -35.62891 c 0,-7.17098 5.6336,-12.80468 12.8047,-12.80468 h 35.6269 a 7.68295,7.68295 0 0 0 7.6836,-7.68164 7.68295,7.68295 0 0 0 -7.6836,-7.6836 z"
       id="path9" /><path
       style="color:#000000;fill:#24786d;stroke-linecap:round;stroke-linejoin:round;-inkscape-stroke:none"
       d="m -2551.9155,559.10887 a 7.68295,7.68295 0 0 0 -7.6836,7.68359 v 35.62891 c 0,15.46801 12.7038,28.16992 28.1719,28.16992 h 35.6269 a 7.68295,7.68295 0 0 0 7.6836,-7.68359 7.68295,7.68295 0 0 0 -7.6836,-7.68164 h -35.6269 c -7.1711,0 -12.8047,-5.63371 -12.8047,-12.80469 v -35.62891 a 7.68295,7.68295 0 0 0 -7.6836,-7.68359 z"
       id="path10" /><path
       style="color:#000000;fill:#24786d;stroke-linecap:round;stroke-linejoin:round;-inkscape-stroke:none"
       d="m -2357.2768,559.10887 a 7.68295,7.68295 0 0 0 -7.6817,7.68359 v 35.62891 c 0,7.17094 -5.6337,12.80469 -12.8046,12.80469 h -35.6289 a 7.68295,7.68295 0 0 0 -7.6836,7.68164 7.68295,7.68295 0 0 0 7.6836,7.68359 h 35.6289 c 15.468,0 28.1699,-12.70186 28.1699,-28.16992 v -35.62891 a 7.68295,7.68295 0 0 0 -7.6836,-7.68359 z"
       id="path11" /><path
       style="color:#000000;fill:#24786d;stroke-linecap:round;stroke-linejoin:round;-inkscape-stroke:none"
       d="m -2393.1342,537.93699 c -2.1087,0 -4.2175,0.77639 -5.7813,2.33204 a 7.6837183,7.6837183 0 0 0 -0.014,0.0137 c -3.1438,3.14324 -3.1438,8.44855 0,11.59179 a 7.6837183,7.6837183 0 0 0 0.014,0.0137 c 3.1277,3.11129 8.4329,3.11129 11.5606,0 a 7.6837183,7.6837183 0 0 0 0.016,-0.0156 c 1.8428,-1.84337 2.4724,-4.40669 2.1543,-6.86328 a 7.68295,7.68295 0 0 0 -0.2305,-1.21289 c -0.1131,-0.39824 -0.2077,-0.7811 -0.3808,-1.16016 a 7.68295,7.68295 0 0 0 -1.5059,-2.29492 c -0.016,-0.0166 -0.021,-0.0401 -0.037,-0.0566 a 7.68295,7.68295 0 0 0 -0.01,-0.002 7.68295,7.68295 0 0 0 -0.01,-0.0137 c -1.5639,-1.55565 -3.6707,-2.33204 -5.7793,-2.33204 z m -5.8848,4.3125 a 7.68295,7.68295 0 0 0 -0.957,2.31055 c 0.1754,-0.82761 0.4952,-1.58405 0.957,-2.31055 z m -1.209,4.01368 a 7.68295,7.68295 0 0 0 2.0215,4.88476 c -1.3254,-1.32578 -1.9766,-3.09913 -2.0215,-4.88476 z m 2.0371,4.90039 a 7.68295,7.68295 0 0 0 4.8516,1.99414 c -1.7758,-0.0494 -3.5402,-0.6896 -4.8516,-1.99414 z m 8.8848,0.79687 c -0.7081,0.44805 -1.4423,0.76474 -2.25,0.94141 a 7.68295,7.68295 0 0 0 2.25,-0.94141 z"
       id="path12" /><path
       fill-rule="evenodd"
       clip-rule="evenodd"
       d="m -3154.3997,375.2 180.3209,90.13764 c 5.0361,2.51616 8.2168,7.66211 8.2168,13.29228 0,5.63017 -3.1807,10.77612 -8.2168,13.29228 l -180.3209,90.13702 c -5.2252,2.61375 -11.4967,1.92449 -16.0288,-1.76267 -4.5323,-3.68715 -6.4847,-9.68665 -4.9902,-15.33411 l 22.8671,-86.33252 -22.8671,-86.33264 c -1.4945,-5.64783 0.4579,-11.64746 4.9902,-15.33399 4.5321,-3.68666 10.8036,-4.37654 16.0288,-1.76329 z"
       fill="#ffffff"
       id="path1-10"
       style="stroke-width:12.3523" /><path
       style="color:#000000;fill:#20a090;stroke-linecap:round;stroke-linejoin:round;-inkscape-stroke:none"
       d="m -3152.5508,469.36748 a 9.2642002,9.2642002 0 0 0 -9.2636,9.26367 9.2642002,9.2642002 0 0 0 9.2636,9.26367 h 67.8516 a 9.2642002,9.2642002 0 0 0 9.2656,-9.26367 9.2642002,9.2642002 0 0 0 -9.2656,-9.26367 z"
       id="path2-9" /><path
       style="color:#000000;fill:#797c7b;stroke-linejoin:round;-inkscape-stroke:none"
       d="m -2699.9568,-317.01015 c -15.5824,0 -28.8613,12.22154 -28.8613,27.68945 0,6.25016 -5.9481,9.78508 -11.4375,6.79688 l -1.0899,-0.59375 c -13.654,-7.43273 -31.0429,-3.15583 -39.1308,10.05273 l -10.25,16.73828 c -8.088,13.2086 -3.0176,30.68116 10.6367,38.11328 5.3106,2.8908 5.3106,9.51351 0,12.4043 a 8.3636359,8.3636359 0 0 0 0,0.002 c -13.6536,7.4333 -18.725,24.90518 -10.6367,38.11328 l 10.25,16.73829 c 8.088,13.20787 25.4767,17.48444 39.1308,10.05078 l 1.084,-0.58789 a 8.3636359,8.3636359 0 0 0 0.01,-0.004 c 5.4893,-2.98841 11.4375,0.54609 11.4375,6.79492 0,15.46792 13.2785,27.69141 28.8613,27.69141 h 20.498 c 15.5828,0 28.8614,-12.22349 28.8614,-27.69141 0,-6.2486 5.9479,-9.78278 11.4375,-6.79492 v -0.002 l 1.0898,0.59375 c 13.6542,7.43346 31.0443,3.15645 39.1328,-10.05078 l 10.25,-16.73829 c 8.0882,-13.20863 3.0166,-30.68029 -10.6367,-38.11328 a 8.3636359,8.3636359 0 0 0 0,-0.002 c -5.3098,-2.89041 -5.3107,-9.51318 0,-12.4043 13.6544,-7.43204 18.7253,-24.90467 10.6367,-38.11328 v 0 l -10.25,-16.73828 c -8.0884,-13.20781 -25.4788,-17.48515 -39.1328,-10.05273 l -1.0898,0.59375 c -5.4899,2.98832 -11.4375,-0.54695 -11.4375,-6.79688 0,-15.46791 -13.2789,-27.68945 -28.8614,-27.68945 z m 0,16.72461 h 20.498 c 7.0598,0 12.1368,5.08418 12.1368,10.96484 0,18.18019 20.1902,30.1783 36.1582,21.48633 l 1.0879,-0.59375 c 5.9552,-3.24165 13.6393,-1.18282 16.8731,4.09766 l 10.248,16.73828 c 3.2334,5.28011 1.5836,11.44637 -4.3711,14.6875 a 8.3636359,8.3636359 0 0 0 0,0.002 c -16.1566,8.79496 -16.1566,32.99021 0,41.78516 5.9558,3.24242 7.6029,9.40846 4.3691,14.68945 l -10.248,16.73828 c -3.2335,5.27965 -10.9164,7.33634 -16.8711,4.0957 v 0 l -1.0879,-0.59375 c -15.9682,-8.69106 -36.1582,3.3066 -36.1582,21.48633 0,5.88067 -5.0773,10.96485 -12.1368,10.96485 h -20.498 c -7.0594,0 -12.1367,-5.08418 -12.1367,-10.96485 0,-18.1795 -20.1906,-30.17713 -36.1582,-21.48437 l -1.084,0.58789 a 8.3636359,8.3636359 0 0 0 -0.01,0.004 c -5.9544,3.24175 -13.6381,1.18381 -16.8711,-4.0957 l -10.25,-16.73828 c -3.2329,-5.27927 -1.586,-11.44734 4.3692,-14.68945 16.1568,-8.79484 16.1567,-32.99031 0,-41.78516 a 8.3636359,8.3636359 0 0 0 0,-0.002 c -5.9545,-3.24105 -7.6024,-9.40716 -4.3692,-14.6875 l 10.25,-16.73828 c 3.2331,-5.27994 10.9163,-7.33923 16.8711,-4.09766 l 1.0899,0.59375 c 15.9675,8.69209 36.1582,-3.30637 36.1582,-21.48633 0,-5.88066 5.077,-10.96484 12.1367,-10.96484 z"
       id="path1-70" /><path
       style="color:#000000;fill:#797c7b;-inkscape-stroke:none"
       d="m -2689.7068,-256.61171 c -24.5338,0 -44.6035,20.06781 -44.6035,44.60156 0,24.53375 20.0697,44.60156 44.6035,44.60156 24.5337,0 44.6016,-20.06781 44.6016,-44.60156 0,-24.53375 -20.0679,-44.60156 -44.6016,-44.60156 z m 0,16.72461 c 15.4946,0 27.875,12.38237 27.875,27.87695 0,15.49458 -12.3804,27.875 -27.875,27.875 -15.4946,0 -27.877,-12.38042 -27.877,-27.875 0,-15.49458 12.3824,-27.87695 27.877,-27.87695 z"
       id="circle1-5" /><path
       style="color:#000000;clip-rule:evenodd;fill:#ffffff;fill-rule:evenodd;stroke-linecap:round;stroke-linejoin:round;-inkscape-stroke:none"
       d="m -491.8234,-497.34946 c -4.3167,0.41277 -8.5736,2.05943 -12.252,5.17969 v 0.002 c 0,0.002 0,0.002 -0.01,0.004 l -50.6406,42.90039 h -28.2129 c -12.8695,0 -23.5137,10.64418 -23.5137,23.51367 v 63.82226 c 0,12.8695 10.6442,23.51368 23.5137,23.51368 h 28.2168 l 50.6445,42.90625 c 14.7267,12.48078 38.709,1.36128 38.709,-17.93946 v -160.7832 c 0,-14.48215 -13.498,-24.35831 -26.457,-23.11914 z m 2.793,19.47266 c 1.9341,-0.4425 3.5078,0.95672 3.5078,3.64648 v 160.7832 c 0,3.59421 -2.7807,4.88788 -5.5215,2.56446 a 10.078408,10.078408 0 0 0 0,-0.002 l -53.4629,-45.29492 a 10.078408,10.078408 0 0 0 -6.5137,-2.38867 h -31.9121 c -1.9645,0 -3.3594,-1.39492 -3.3594,-3.35938 v -63.82226 c 0,-1.96445 1.3949,-3.35938 3.3594,-3.35938 h 31.9121 a 10.078408,10.078408 0 0 0 6.5137,-2.38867 l 53.4629,-45.29492 a 10.078408,10.078408 0 0 0 0.01,-0.006 c 0.68,-0.57731 1.3631,-0.93063 2.0079,-1.07812 z"
       id="path1-690" /><path
       style="color:#000000;fill:#ffffff;stroke-linecap:round;stroke-linejoin:round;-inkscape-stroke:none"
       d="m -423.4367,-457.11509 a 10.0774,10.0774 0 0 0 -6.293,4.45899 10.0774,10.0774 0 0 0 3.1641,13.89648 c 12.1102,7.61838 21.6641,24.56455 21.6641,44.98828 0,20.42375 -9.5622,37.33395 -21.6172,44.82422 a 10.0774,10.0774 0 0 0 -3.2403,13.87696 10.0774,10.0774 0 0 0 13.877,3.24218 c 19.1716,-11.9121 31.1348,-35.36605 31.1348,-61.94336 0,-26.57729 -11.9696,-50.02296 -31.086,-62.04882 a 10.0774,10.0774 0 0 0 -7.6035,-1.29493 z"
       id="path2-8" /><path
       style="color:#000000;fill:#ffffff;stroke-linecap:round;stroke-linejoin:round;-inkscape-stroke:none"
       d="m -382.1554,-498.80259 a 10.0774,10.0774 0 0 0 -6.8809,3.48633 10.0774,10.0774 0 0 0 1.0859,14.20899 c 21.8014,18.70751 36.793,50.65141 36.793,87.30859 0,36.60428 -14.9678,68.52566 -36.7363,87.24805 a 10.0774,10.0774 0 0 0 -1.0684,14.21289 10.0774,10.0774 0 0 0 14.211,1.06836 c 26.818,-23.06527 43.75,-60.47604 43.75,-102.5293 0,-42.10786 -16.9585,-79.55025 -43.8243,-102.60352 a 10.0774,10.0774 0 0 0 -7.33,-2.40039 z"
       id="path3-15" /><path
       style="color:#000000;fill:#ffffff;stroke-width:0.994931;stroke-linecap:round;-inkscape-stroke:none"
       d="m -2505.1742,94.173369 c -14.9365,0 -27.213,12.278381 -27.213,27.214851 v 3.49004 c -22.8729,2.84699 -44.2641,9.16933 -63.1587,18.37707 a 7.9009449,7.9009449 0 0 0 -3.6396,10.56337 7.9009449,7.9009449 0 0 0 10.5633,3.6416 c 23.9515,-11.67212 52.6159,-18.51504 83.448,-18.51504 30.8319,0 59.4984,6.84294 83.4498,18.51504 a 7.9009449,7.9009449 0 0 0 10.5633,-3.6416 7.9009449,7.9009449 0 0 0 -3.6416,-10.56337 c -18.8939,-9.2075 -40.2845,-15.52998 -63.1567,-18.37707 v -3.49004 c 0,-14.93637 -12.2785,-27.214851 -27.2148,-27.214851 z m 0,15.802301 c 6.3961,0 11.4125,5.01602 11.4125,11.41255 v 2.06954 c -3.7748,-0.19341 -7.5753,-0.3148 -11.4125,-0.3148 -3.8374,0 -7.6377,0.12139 -11.4126,0.3148 v -2.06954 c 0,-6.39643 5.0162,-11.41255 11.4126,-11.41255 z m -68.2014,51.81802 a 7.9009449,7.9009449 0 0 0 -7.2716,8.48412 l 6.9121,89.87218 c 1.8591,24.16758 22.1514,42.95886 46.3906,42.95886 h 44.3424 c 24.2386,0 44.5302,-18.79098 46.3887,-42.95886 l 6.9139,-89.87218 a 7.9009449,7.9009449 0 0 0 -7.2715,-8.48412 7.9009449,7.9009449 0 0 0 -8.4821,7.27155 l -6.9141,89.87413 c -1.2365,16.08045 -14.5072,28.36719 -30.6349,28.36719 h -44.3424 c -16.1287,0 -29.3979,-12.28645 -30.635,-28.36719 l -6.914,-89.87413 a 7.9009449,7.9009449 0 0 0 -8.4821,-7.27155 z m 48.8896,19.29038 a 7.9009449,7.9009449 0 0 0 -7.9012,7.90116 v 57.93918 a 7.9009449,7.9009449 0 0 0 7.9012,7.90114 7.9009449,7.9009449 0 0 0 7.8992,-7.90114 v -57.93918 a 7.9009449,7.9009449 0 0 0 -7.8992,-7.90116 z m 38.6255,0 a 7.9009449,7.9009449 0 0 0 -7.9012,7.90116 v 57.93918 a 7.9009449,7.9009449 0 0 0 7.9012,7.90114 7.9009449,7.9009449 0 0 0 7.9011,-7.90114 v -57.93918 a 7.9009449,7.9009449 0 0 0 -7.9011,-7.90116 z"
       id="path1-51" /><path
       style="color:#000000;fill:#797c7b;stroke-linejoin:round;-inkscape-stroke:none"
       d="m -2449.768,-704.10707 c -57.9094,0 -105,47.09068 -105,105.00001 0,57.90932 47.0906,105 105,105 57.9093,0 105,-47.09068 105,-105 0,-57.90933 -47.0907,-105.00001 -105,-105.00001 z m 0,13.59765 c 50.5608,0 91.4043,40.84149 91.4043,91.40236 0,50.56086 -40.8435,91.4043 -91.4043,91.4043 -50.5609,0 -91.4024,-40.84344 -91.4024,-91.4043 0,-50.56087 40.8415,-91.40235 91.4024,-91.40236 z"
       id="circle1-4" /><path
       style="color:#000000;fill:#797c7b;stroke-linecap:round;stroke-linejoin:round;-inkscape-stroke:none"
       d="m -2449.768,-576.44495 c -19.6263,0 -37.9982,7.92087 -53.5332,21.28515 a 6.7986002,6.7986002 0 0 0 -0.7207,9.58789 6.7986002,6.7986002 0 0 0 9.5878,0.72071 c 13.5602,-11.66534 28.666,-17.9961 44.6661,-17.9961 16,0 31.1085,6.33094 44.6679,17.9961 a 6.7986002,6.7986002 0 0 0 9.5879,-0.72071 6.7986002,6.7986002 0 0 0 -0.7207,-9.58789 c -15.5347,-13.36445 -33.9089,-21.28515 -53.5351,-21.28515 z"
       id="path1-93" /><path
       style="color:#000000;fill:#797c7b;stroke-linejoin:round;-inkscape-stroke:none"
       d="m -2449.768,-592.30823 c -19.9449,0 -36.2579,-16.313 -36.2579,-36.25782 0,-19.94482 16.313,-36.25977 36.2579,-36.25977 19.9448,0 36.2597,16.31495 36.2597,36.25977 0,19.94482 -16.3149,36.25782 -36.2597,36.25782 z m 0,-13.59766 c 12.5963,0 22.6621,-10.06381 22.6621,-22.66016 0,-12.59635 -10.0658,-22.66212 -22.6621,-22.66212 -12.5964,0 -22.6622,10.06577 -22.6622,22.66212 0,12.59635 10.0658,22.66016 22.6622,22.66016 z"
       id="circle2" /><path
       style="color:#000000;clip-rule:evenodd;fill:#000e08;fill-rule:evenodd;stroke-linecap:round;stroke-linejoin:round;-inkscape-stroke:none"
       d="m 877.85603,64.002584 c -26.62262,0 -48.46289,21.84027 -48.46289,48.462856 v 113.0762 c 0,26.6226 21.84026,48.4609 48.46289,48.4609 h 127.21087 c 26.6226,0 48.461,-21.8383 48.461,-48.4609 v -113.0762 c 0,-26.622576 -21.8384,-48.462856 -48.461,-48.462856 z m 0,24.23242 h 127.21087 c 13.5358,0 24.2305,10.69467 24.2305,24.230436 v 113.0762 c 0,13.5358 -10.6947,24.2305 -24.2305,24.2305 H 877.85603 c -13.53579,0 -24.23047,-10.6947 -24.23047,-24.2305 v -113.0762 c 0,-13.535756 10.69467,-24.230436 24.23047,-24.230436 z"
       id="path1-870" /><path
       style="color:#000000;fill:#000e08;stroke-linecap:round;stroke-linejoin:round;-inkscape-stroke:none"
       d="m 1115.0396,86.182274 c -6.8744,-0.40538 -13.9327,1.50488 -19.9238,6.33203 l -61.2989,49.330036 a 12.1154,12.1154 0 0 0 -1.8418,17.0332 12.1154,12.1154 0 0 0 17.0332,1.8438 l 61.3047,-49.334 a 12.116612,12.116612 0 0 0 0.01,0 c 4.6066,-3.7116 9.8437,-1.1981 9.8437,4.7168 v 105.8066 c 0,5.915 -5.2371,8.4284 -9.8437,4.7168 a 12.116612,12.116612 0 0 0 -0.01,0 l -61.3047,-49.3339 a 12.1154,12.1154 0 0 0 -17.0332,1.8418 12.1154,12.1154 0 0 0 1.8418,17.0351 l 61.3047,49.334 c 19.1721,15.4395 49.2715,1.0235 49.2715,-23.5898 v -105.8065 c 0,-16.923356 -14.2299,-29.026136 -29.3535,-29.917966 z"
       id="path2-42" /><path
       style="color:#000000;fill:#000e08;stroke-linejoin:round;-inkscape-stroke:none"
       d="m 1682.9448,-116.91425 c -16.2605,0 -29.6152,13.3548 -29.6152,29.615234 0,99.52832 80.8564,180.38477 180.3847,180.38477 16.2605,0 29.6152,-13.35474 29.6153,-29.61524 v -17.72656 c 0,-12.08536 -7.3957,-23.00972 -18.6172,-27.49805 l -21.9043,-8.7597597 c -13.4467,-5.38038 -28.7268,-0.0226 -36.166,12.1386697 -8.3168,-2.60697 -24.6816,-9.02338 -38.7559,-23.0976597 -14.0744,-14.0743803 -20.4888,-30.4392003 -23.0957,-38.7558603 12.1605,-7.4391 17.5173,-22.71728 12.1387,-36.16406 l -8.7618,-21.90625 c -4.4885,-11.221034 -15.4126,-18.615234 -27.498,-18.615234 z m 0,16.15234 h 17.7246 c 5.5288,0 10.4465,3.329344 12.5,8.462894 l 8.7617,21.90625 c 2.6274,6.56851 -0.151,13.8753 -6.4785,17.03906 l -3.8125,1.90625 a 8.0777072,8.0777072 0 0 0 -4.3086,8.8086 c 0,0 5.6907,29.14767 29.1328,52.5898403 23.4422,23.4421797 52.5899,29.1308597 52.5899,29.1308597 a 8.0777072,8.0777072 0 0 0 8.8066,-4.30859 l 1.9063,-3.81055 v -0.002 c 3.1644,-6.32708 10.4726,-9.10592 17.039,-6.47852 a 8.0777072,8.0777072 0 0 0 0,0.002 l 21.9062,8.76172 c 5.1326,2.05291 8.461,6.96927 8.461,12.49805 v 17.72656 c 0,7.53086 -5.9301,13.46094 -13.461,13.46094 -90.7983,0 -164.2305,-73.4321997 -164.2305,-164.23047 0,-7.53027 5.9307,-13.462894 13.461,-13.462894 z"
       id="path1-19" /><path
       d="m -2170.6444,277.13181 -1.471,7.355 c 3.317,0.663 6.667,-0.975 8.179,-4.001 z m -75.8333,-75.83299 -3.3541,-6.7082 c -3.0251,1.5125 -4.6636,4.8626 -4.0003,8.1791 z m 3.8352,-1.9176 3.354,6.7086 h 1e-4 z m 10.4271,-27.426 6.964,-2.7855 z m -8.8144,-22.0365 -6.9636,2.7854 v 0 z m 121.7654,121.76509 -2.785,6.964 z m -22.036,-8.814 2.785,-6.964 v 0 z m -27.426,10.427 6.708,3.354 v 0 z m 12.249,-50.33099 c 0,4.142 3.358,7.49999 7.5,7.49999 4.142,0 7.5,-3.35799 7.5,-7.49999 z m 4.201,-16.583 6.929,-2.8704 z m -23.452,-23.4521 2.87,-6.9291 z m -16.583,-10.7986 c -4.142,0 -7.5,3.3579 -7.5,7.5 0,4.1422 3.358,7.5 7.5,7.5 z m 79.167,50.8337 c 0,4.142 3.358,7.49999 7.5,7.49999 4.142,0 7.5,-3.35799 7.5,-7.49999 z m 0.903,-33.1662 6.929,-2.8702 v 0 z m -46.904,-46.9037 2.87,-6.9291 v 0 z m -33.166,-14.0971 c -4.142,0 -7.5,3.3579 -7.5,7.5 0,4.1421 3.358,7.5 7.5,7.5 z m 79.167,163.00199 v 17.831 h 15 v -17.831 z m -165.8333,-148.00199 h 17.8309 v -15 h -17.8309 z m 108.3333,133.33299 c 1.471,-7.354 1.473,-7.354 1.475,-7.353 0,0 0,0 0,10e-4 0,0 0,0 0.01,10e-4 0,0 0,0 0,0 -10e-4,0 -0.01,-0.002 -0.023,-0.004 -0.027,-0.006 -0.08,-0.017 -0.157,-0.034 -0.153,-0.034 -0.403,-0.091 -0.74,-0.173 -0.676,-0.165 -1.704,-0.43 -3.021,-0.818 -2.637,-0.775 -6.415,-2.033 -10.842,-3.93 -8.887,-3.809 -20.182,-10.107 -30.151,-20.076 l -10.606,10.606 c 11.697,11.698 24.778,18.941 34.849,23.257 5.052,2.166 9.4,3.617 12.517,4.534 1.561,0.459 2.819,0.785 3.708,1.002 0.445,0.108 0.799,0.189 1.053,0.245 0.127,0.028 0.229,0.05 0.305,0.066 0.038,0.008 0.07,0.014 0.095,0.019 0.012,0.003 0.023,0.005 0.032,0.007 0,10e-4 0.01,0.002 0.013,0.003 0,0 0,0.001 0.01,0.001 0,0 0,10e-4 1.476,-7.354 z m -43.447,-32.386 c -9.969,-9.969 -16.267,-21.26399 -20.0761,-30.15099 -1.8971,-4.427 -3.1544,-8.205 -3.9301,-10.8419 -0.3873,-1.317 -0.6531,-2.3446 -0.8176,-3.0207 -0.082,-0.3379 -0.1389,-0.5874 -0.1728,-0.7409 -0.017,-0.0767 -0.028,-0.1293 -0.034,-0.1569 -0,-0.0138 -0.01,-0.0213 -0.01,-0.0224 -10e-5,-6e-4 1e-4,5e-4 6e-4,0.003 3e-4,0.001 7e-4,0.003 10e-4,0.005 2e-4,0.001 6e-4,0.003 7e-4,0.003 4e-4,0.002 8e-4,0.004 -7.3535,1.475 -7.3544,1.4709 -7.3539,1.4732 -7.3534,1.4756 10e-5,0.001 7e-4,0.004 10e-4,0.005 8e-4,0.004 0,0.008 0,0.0126 0,0.009 0,0.0201 0.01,0.0326 0,0.0251 0.012,0.0568 0.02,0.0949 0.016,0.0762 0.038,0.1783 0.066,0.3053 0.056,0.2538 0.1368,0.6076 0.245,1.0526 0.2164,0.889 0.5431,2.147 1.0021,3.708 0.9171,3.117 2.3681,7.465 4.5334,12.517 4.316,10.07099 11.5595,23.15199 23.2573,34.84899 z m -29.0322,-36.73899 3.8351,-1.917 -6.7081,-13.4168 -3.8352,1.9176 z m 17.8722,-38.8371 -8.8148,-22.0365 -13.9272,5.5709 8.8146,22.0365 z m 108.773,95.55109 -22.037,-8.815 -5.571,13.927 22.037,8.815 z m -58.957,5.222 -1.917,3.835 13.416,6.708 1.918,-3.835 z m 36.92,-14.037 c -14.084,-5.633 -30.136,0.469 -36.92,14.037 l 13.417,6.708 c 3.295,-6.59 11.091,-9.554 17.932,-6.818 z m -100.773,-49.81599 c 13.568,-6.7843 19.671,-22.8358 14.037,-36.9201 l -13.9274,5.5709 c 2.7364,6.8409 -0.2278,14.6374 -6.8178,17.9324 z m -21.8584,-62.291 c 5.7928,0 11.002,3.5268 13.1534,8.9053 l 13.9272,-5.5709 c -4.4294,-11.0733 -15.1542,-18.3344 -27.0806,-18.3344 z m 163.0024,148.00199 c 0,-11.926 -7.261,-22.651 -18.334,-27.08 l -5.571,13.927 c 5.378,2.151 8.905,7.361 8.905,13.153 z m -29.167,31.998 c -91.587,0 -165.833,-74.246 -165.833,-165.83329 h -15 c 0,99.87129 80.962,180.83329 180.833,180.83329 z m 0,15 c 16.109,0 29.167,-13.058 29.167,-29.167 h -15 c 0,7.824 -6.343,14.167 -14.167,14.167 z m -165.833,-180.83329 c 0,-7.8241 6.3426,-14.1667 14.1667,-14.1667 v -15 c -16.1083,0 -29.1667,13.0584 -29.1667,29.1667 z m 151.667,65.0003 c 0,-6.676 -1.315,-13.286 -3.87,-19.4534 l -13.858,5.7404 c 1.801,4.347 2.728,9.007 2.728,13.713 z m -3.87,-19.4534 c -2.554,-6.1674 -6.299,-11.7712 -11.019,-16.4915 l -10.607,10.6066 c 3.328,3.3274 5.967,7.2773 7.768,11.6253 z m -11.019,-16.4915 c -4.72,-4.7203 -10.324,-8.4647 -16.492,-11.0193 l -5.74,13.8582 c 4.348,1.8008 8.298,4.4402 11.625,7.7677 z m -16.492,-11.0193 c -6.167,-2.5546 -12.777,-3.8695 -19.453,-3.8695 v 15 c 4.706,0 9.366,0.9269 13.713,2.7277 z m 74.714,46.9642 c 0,-12.366 -2.436,-24.6115 -7.168,-36.0364 l -13.858,5.7403 c 3.978,9.6049 6.026,19.8991 6.026,30.2961 z m -7.168,-36.0364 c -4.732,-11.4248 -11.669,-21.8056 -20.413,-30.5498 l -10.606,10.6066 c 7.351,7.3513 13.182,16.0786 17.161,25.6835 z m -20.413,-30.5498 c -8.744,-8.7442 -19.125,-15.6805 -30.55,-20.4128 l -5.74,13.8582 c 9.605,3.9785 18.332,9.8099 25.684,17.1612 z m -30.55,-20.4128 c -11.424,-4.7323 -23.67,-7.168 -36.036,-7.168 v 15 c 10.397,0 20.691,2.0477 30.296,6.0262 z"
       fill="#797c7b"
       id="path1-27"
       style="stroke-width:10" /><path
       d="m -18.597321,-355.05162 v 8.021 c 2.6818,0 5.18627,-1.34036 6.6739,-3.5717 z m 15.0395895,-22.55934 -6.6738995,-4.4493 v 0 z m 76.8671995,0 6.67454,-4.4493 z m 15.03991,22.55934 -6.67347,4.4493 c 1.48762,2.23134 3.99125,3.5717 6.67347,3.5717 z m -29.41034,80.21003 c 0,13.28919 -10.77381,24.063 -24.06301,24.063 v 16.04201 c 22.14973,0 40.10501,-17.95528 40.10501,-40.10501 z m -24.06301,24.063 c -13.289199,0 -24.063009,-10.77381 -24.063009,-24.063 H -5.2289815 c 0,22.14973 17.9556005,40.10501 40.1050095,40.10501 z m -24.063009,-24.063 c 0,-13.2892 10.77381,-24.06301 24.063009,-24.06301 v -16.04201 c -22.149409,0 -40.1050095,17.95528 -40.1050095,40.10502 z m 24.063009,-24.06301 c 13.2892,0 24.06301,10.77381 24.06301,24.06301 h 16.042 c 0,-22.14974 -17.95528,-40.10502 -40.10501,-40.10502 z m -46.799449,-51.69772 15.0394895,-22.55944 -13.3476995,-8.8985 -15.03959,22.55934 z m 26.16301,-28.51231 h 41.272879 v -16.042 H 14.239589 Z m 52.396399,5.95287 15.03992,22.55944 13.34694,-8.8986 -15.03884,-22.55934 z m -11.12352,-5.95287 c 4.47037,0 8.6445,2.23391 11.12352,5.95287 l 13.34802,-8.8985 c -5.45535,-8.18185 -14.6378,-13.09637 -24.47154,-13.09637 z m -52.3963995,5.95287 c 2.47945,-3.71896 6.65347,-5.95287 11.1235205,-5.95287 v -16.042 c -9.8337405,0 -19.0166205,4.91452 -24.47122,13.09637 z m 130.6856615,60.88882 v 74.86269 h 16.042 v -74.86269 z M 99.044048,-202.65257 H -29.291991 v 16.042 H 99.044048 Z m -163.09372,-34.75768 v -74.86269 h -16.041999 v 74.86269 z m 34.757681,34.75768 c -19.19618,0 -34.757681,-15.56182 -34.757681,-34.75768 h -16.041999 c 0,28.0564 22.743819,50.79968 50.79968,50.79968 z m 163.093721,-34.75768 c 0,19.19586 -15.56182,34.75768 -34.757682,34.75768 v 16.042 c 28.056402,0 50.799682,-22.74328 50.799682,-50.79968 z M 99.044048,-347.03062 c 19.195862,0 34.757682,15.5615 34.757682,34.75768 h 16.042 c 0,-28.05586 -22.74328,-50.79968 -50.799682,-50.79968 z m -128.336039,-16.042 c -28.055861,0 -50.79968,22.74382 -50.79968,50.79968 h 16.041999 c 0,-19.19618 15.561501,-34.75768 34.757681,-34.75768 z m 0,16.042 h 10.69467 v -16.042 h -10.69467 z m 128.336039,-16.042 h -10.69467 v 16.042 h 10.69467 z"
       fill="#000e08"
       id="path1-74"
       style="stroke-width:10.6947" /><circle
       cx="34.876022"
       cy="-355.05164"
       r="10.69467"
       fill="#000e08"
       id="circle1-8"
       style="stroke-width:10.6947" /><path
       style="color:#000000;clip-rule:evenodd;fill:#797c7b;fill-rule:evenodd;stroke-linecap:round;stroke-linejoin:round;-inkscape-stroke:none"
       d="m -2300.593,-250.0066 c -13.2358,0 -24.1386,10.90248 -24.1386,24.13867 v 160.923829 c 0,13.23603 10.9026,24.13867 24.1386,24.13867 h 10.7285 c 13.2361,0 24.1387,-10.90264 24.1387,-24.13867 V -225.86793 c 0,-13.23619 -10.9028,-24.13867 -24.1387,-24.13867 z m 0,16.0918 h 10.7285 c 4.5387,0 8.045,3.50791 8.045,8.04687 v 160.923829 c 0,4.53847 -3.5065,8.04492 -8.045,8.04492 h -10.7285 c -4.5385,0 -8.0468,-3.50644 -8.0468,-8.04492 V -225.86793 c 0,-4.53896 3.5081,-8.04687 8.0468,-8.04687 z"
       id="path1-42" /><path
       style="color:#000000;clip-rule:evenodd;fill:#797c7b;fill-rule:evenodd;stroke-linecap:round;stroke-linejoin:round;-inkscape-stroke:none"
       d="m -2375.6906,-189.02613 c -13.2359,0 -24.1387,10.90247 -24.1387,24.13867 v 99.945319 c 0,13.23603 10.9026,24.13867 24.1387,24.13867 h 10.7285 c 13.236,0 24.1387,-10.90264 24.1387,-24.13867 v -99.945319 c 0,-13.2362 -10.9029,-24.13867 -24.1387,-24.13867 z m 0,16.09375 h 10.7285 c 4.5387,0 8.0449,3.50596 8.0449,8.04492 v 99.945319 c 0,4.53848 -3.5064,8.04492 -8.0449,8.04492 h -10.7285 c -4.5385,0 -8.0469,-3.50644 -8.0469,-8.04492 v -99.945319 c 0,-4.53896 3.5082,-8.04492 8.0469,-8.04492 z"
       id="path2-99" /><path
       style="color:#000000;clip-rule:evenodd;fill:#797c7b;fill-rule:evenodd;stroke-linecap:round;stroke-linejoin:round;-inkscape-stroke:none"
       d="m -2450.7883,-128.04371 c -13.2362,0 -24.1387,10.90284 -24.1387,24.13867 v 38.964849 c 0,13.23584 10.9025,24.13867 24.1387,24.13867 h 10.7285 c 13.2362,0 24.1387,-10.90283 24.1387,-24.13867 v -38.964849 c 0,-13.23583 -10.9025,-24.13867 -24.1387,-24.13867 z m 0,16.0918 h 10.7285 c 4.539,0 8.045,3.50821 8.045,8.04687 v 38.964849 c 0,4.53866 -3.506,8.04492 -8.045,8.04492 h -10.7285 c -4.5389,0 -8.0469,-3.50626 -8.0469,-8.04492 v -38.964849 c 0,-4.53866 3.508,-8.04687 8.0469,-8.04687 z"
       id="path3-70" /></g></svg>
