<svg width="26" height="26" viewBox="0 0 26 26" fill="none" xmlns="http://www.w3.org/2000/svg">
<path d="M16.25 17.3333L16.1029 18.0688C16.4346 18.1351 16.7696 17.9713 16.9208 17.6687L16.25 17.3333ZM8.66667 9.75L8.33126 9.07918C8.02875 9.23043 7.8649 9.56544 7.93123 9.89709L8.66667 9.75ZM9.05019 9.55824L9.38559 10.2291H9.3856L9.05019 9.55824ZM10.0929 6.81564L10.7893 6.53709L10.0929 6.81564ZM9.21146 4.61199L8.5151 4.89053V4.89053L9.21146 4.61199ZM21.388 16.7885L21.1095 17.4849L21.388 16.7885ZM19.1844 15.9071L19.4629 15.2107H19.4629L19.1844 15.9071ZM16.4418 16.9498L17.1126 17.2852V17.2852L16.4418 16.9498ZM17.6667 11.9167C17.6667 12.3309 18.0025 12.6667 18.4167 12.6667C18.8309 12.6667 19.1667 12.3309 19.1667 11.9167H17.6667ZM18.0868 10.2584L18.7797 9.97136L18.0868 10.2584ZM15.7416 7.91319L16.0286 7.22028L15.7416 7.91319ZM14.0833 6.83333C13.6691 6.83333 13.3333 7.16912 13.3333 7.58333C13.3333 7.99755 13.6691 8.33333 14.0833 8.33333V6.83333ZM22 11.9167C22 12.3309 22.3358 12.6667 22.75 12.6667C23.1642 12.6667 23.5 12.3309 23.5 11.9167H22ZM22.0903 8.60008L22.7832 8.31306V8.31306L22.0903 8.60008ZM17.3999 3.90971L17.6869 3.2168L17.6869 3.2168L17.3999 3.90971ZM14.0833 2.5C13.6691 2.5 13.3333 2.83579 13.3333 3.25C13.3333 3.66421 13.6691 4 14.0833 4V2.5ZM22 18.8002V20.5833H23.5V18.8002H22ZM5.41667 4H7.19976V2.5H5.41667V4ZM16.25 17.3333C16.3971 16.5979 16.3973 16.5979 16.3975 16.598C16.3976 16.598 16.3977 16.598 16.3978 16.5981C16.3981 16.5981 16.3982 16.5981 16.3984 16.5982C16.3986 16.5982 16.3987 16.5982 16.3987 16.5982C16.3986 16.5982 16.3978 16.598 16.3964 16.5978C16.3937 16.5972 16.3884 16.5961 16.3807 16.5944C16.3654 16.591 16.3404 16.5853 16.3067 16.5771C16.2391 16.5606 16.1363 16.5341 16.0046 16.4953C15.7409 16.4178 15.3631 16.292 14.9204 16.1023C14.0317 15.7214 12.9022 15.0916 11.9053 14.0947L10.8447 15.1553C12.0144 16.3251 13.3225 17.0494 14.3296 17.481C14.8348 17.6976 15.2696 17.8427 15.5813 17.9344C15.7374 17.9803 15.8632 18.0129 15.9521 18.0346C15.9966 18.0454 16.032 18.0535 16.0574 18.0591C16.0701 18.0619 16.0803 18.0641 16.0879 18.0657C16.0917 18.0665 16.0949 18.0671 16.0974 18.0676C16.0986 18.0679 16.0997 18.0681 16.1006 18.0683C16.1011 18.0684 16.1015 18.0685 16.1019 18.0686C16.1021 18.0686 16.1023 18.0687 16.1024 18.0687C16.1027 18.0687 16.1029 18.0688 16.25 17.3333ZM11.9053 14.0947C10.9084 13.0978 10.2786 11.9683 9.89769 11.0796C9.70798 10.6369 9.58225 10.2591 9.50468 9.99541C9.46595 9.86371 9.43937 9.76095 9.42292 9.69334C9.41471 9.65955 9.40903 9.6346 9.40564 9.61925C9.40395 9.61158 9.40283 9.60632 9.40225 9.60356C9.40196 9.60218 9.4018 9.60143 9.40178 9.60132C9.40177 9.60126 9.40179 9.60137 9.40184 9.60163C9.40187 9.60177 9.40191 9.60194 9.40195 9.60215C9.40197 9.60226 9.40201 9.60245 9.40202 9.6025C9.40206 9.6027 9.4021 9.60291 8.66667 9.75C7.93123 9.89709 7.93128 9.89732 7.93133 9.89756C7.93134 9.89766 7.9314 9.89791 7.93143 9.8981C7.93151 9.89848 7.93159 9.8989 7.93169 9.89936C7.93188 9.90028 7.9321 9.90137 7.93235 9.90262C7.93287 9.90513 7.93352 9.9083 7.93432 9.91211C7.93593 9.91973 7.93811 9.92994 7.94092 9.94264C7.94652 9.96802 7.9546 10.0034 7.96542 10.0479C7.98706 10.1368 8.01973 10.2626 8.06563 10.4187C8.15734 10.7304 8.30244 11.1652 8.51897 11.6704C8.95057 12.6775 9.67492 13.9856 10.8447 15.1553L11.9053 14.0947ZM9.00208 10.4208L9.38559 10.2291L8.71478 8.88742L8.33126 9.07918L9.00208 10.4208ZM10.7893 6.53709L9.90782 4.33344L8.5151 4.89053L9.39656 7.09418L10.7893 6.53709ZM21.6666 16.0922L19.4629 15.2107L18.9058 16.6034L21.1095 17.4849L21.6666 16.0922ZM15.7709 16.6144L15.5792 16.9979L16.9208 17.6687L17.1126 17.2852L15.7709 16.6144ZM19.4629 15.2107C18.0545 14.6474 16.4493 15.2576 15.7709 16.6144L17.1126 17.2852C17.4421 16.6262 18.2217 16.3298 18.9058 16.6034L19.4629 15.2107ZM9.3856 10.2291C10.7424 9.55067 11.3527 7.94552 10.7893 6.53709L9.39656 7.09418C9.6702 7.77827 9.37378 8.55792 8.71478 8.88742L9.3856 10.2291ZM7.19976 4C7.77904 4 8.29996 4.35268 8.5151 4.89053L9.90782 4.33344C9.46488 3.22611 8.3924 2.5 7.19976 2.5V4ZM23.5 18.8002C23.5 17.6076 22.7739 16.5351 21.6666 16.0922L21.1095 17.4849C21.6473 17.7 22 18.221 22 18.8002H23.5ZM20.5833 22C11.4246 22 4 14.5754 4 5.41667H2.5C2.5 15.4038 10.5962 23.5 20.5833 23.5V22ZM20.5833 23.5C22.1942 23.5 23.5 22.1942 23.5 20.5833H22C22 21.3657 21.3657 22 20.5833 22V23.5ZM4 5.41667C4 4.63426 4.63426 4 5.41667 4V2.5C3.80584 2.5 2.5 3.80584 2.5 5.41667H4ZM19.1667 11.9167C19.1667 11.2491 19.0352 10.5881 18.7797 9.97136L17.3939 10.5454C17.574 10.9801 17.6667 11.4461 17.6667 11.9167H19.1667ZM18.7797 9.97136C18.5243 9.35462 18.1498 8.79424 17.6778 8.32221L16.6171 9.38287C16.9499 9.71561 17.2138 10.1106 17.3939 10.5454L18.7797 9.97136ZM17.6778 8.32221C17.2058 7.85018 16.6454 7.47574 16.0286 7.22028L15.4546 8.6061C15.8894 8.78618 16.2844 9.05012 16.6171 9.38287L17.6778 8.32221ZM16.0286 7.22028C15.4119 6.96482 14.7509 6.83333 14.0833 6.83333V8.33333C14.5539 8.33333 15.0199 8.42602 15.4546 8.6061L16.0286 7.22028ZM23.5 11.9167C23.5 10.6801 23.2564 9.45555 22.7832 8.31306L21.3974 8.88709C21.7952 9.84758 22 10.877 22 11.9167H23.5ZM22.7832 8.31306C22.31 7.17058 21.6163 6.1325 20.7419 5.25808L19.6813 6.31874C20.4164 7.05387 20.9995 7.9266 21.3974 8.88709L22.7832 8.31306ZM20.7419 5.25808C19.8675 4.38366 18.8294 3.69003 17.6869 3.2168L17.1129 4.60262C18.0734 5.00047 18.9461 5.58361 19.6813 6.31874L20.7419 5.25808ZM17.6869 3.2168C16.5445 2.74357 15.3199 2.5 14.0833 2.5V4C15.123 4 16.1524 4.20477 17.1129 4.60262L17.6869 3.2168Z" fill="#797C7B"/>
</svg>
