<svg width="26" height="26" viewBox="0 0 26 26" fill="none" xmlns="http://www.w3.org/2000/svg">
<path fill-rule="evenodd" clip-rule="evenodd" d="M21.5031 17.7623C22.2939 16.354 22.75 14.7312 22.75 13C22.75 7.61475 18.3853 3.25 13 3.25C7.61475 3.25 3.25 7.61475 3.25 13C3.25 18.3853 7.61475 22.75 13 22.75C14.7312 22.75 16.354 22.2939 17.7623 21.5031L22.75 22.75L21.5031 17.7623Z" stroke="#797C7B" stroke-width="1.5" stroke-linecap="round" stroke-linejoin="round"/>
<path d="M12.8085 13.3499C12.9147 13.2438 13.0858 13.2438 13.192 13.3499C13.2982 13.4561 13.2982 13.6273 13.192 13.7334C13.0858 13.8396 12.9147 13.8396 12.8085 13.7334C12.7034 13.6273 12.7034 13.4561 12.8085 13.3499" stroke="#797C7B" stroke-width="1.5" stroke-linecap="round" stroke-linejoin="round"/>
<path d="M8.47451 13.3499C8.58068 13.2438 8.75184 13.2438 8.85801 13.3499C8.96418 13.4561 8.96418 13.6273 8.85801 13.7334C8.75184 13.8396 8.58068 13.8396 8.47451 13.7334C8.36943 13.6273 8.36943 13.4561 8.47451 13.3499" stroke="#797C7B" stroke-width="1.5" stroke-linecap="round" stroke-linejoin="round"/>
<path d="M17.1415 13.3499C17.2477 13.2438 17.4188 13.2438 17.525 13.3499C17.6312 13.4561 17.6312 13.6273 17.525 13.7334C17.4188 13.8396 17.2477 13.8396 17.1415 13.7334C17.0364 13.6273 17.0364 13.4561 17.1415 13.3499" stroke="#797C7B" stroke-width="1.5" stroke-linecap="round" stroke-linejoin="round"/>
</svg>
