<svg width="24" height="24" viewBox="0 0 24 24" fill="none" xmlns="http://www.w3.org/2000/svg">
<path d="M22 14L19.061 11.8839C17.5338 10.7843 15.4467 10.898 14.0479 12.1569L9.95209 15.8431C8.55331 17.102 6.4662 17.2157 4.93901 16.1161L2 14M6 22H18C20.2091 22 22 20.2091 22 18V6C22 3.79086 20.2091 2 18 2H6C3.79086 2 2 3.79086 2 6V18C2 20.2091 3.79086 22 6 22ZM11 8.5C11 9.88071 9.88071 11 8.5 11C7.11929 11 6 9.88071 6 8.5C6 7.11929 7.11929 6 8.5 6C9.88071 6 11 7.11929 11 8.5Z" stroke="#797C7B" stroke-width="1.5" stroke-linecap="round"/>
</svg>
