<svg width="22" height="22" viewBox="0 0 22 22" fill="none" xmlns="http://www.w3.org/2000/svg">
<path d="M3.32501 2.22032C3.03211 1.92743 2.55724 1.92743 2.26435 2.22032C1.97145 2.51321 1.97145 2.98809 2.26435 3.28098L3.32501 2.22032ZM18.7643 19.781C19.0572 20.0739 19.5321 20.0739 19.825 19.781C20.1179 19.4881 20.1179 19.0132 19.825 18.7203L18.7643 19.781ZM16.2958 17.2507C16.7101 17.2507 17.0458 16.9149 17.0458 16.5007C17.0458 16.0864 16.7101 15.7507 16.2958 15.7507V17.2507ZM16.7197 8.22791L15.9744 8.31249L16.7197 8.22791ZM17.1296 11.8396L17.8748 11.7551L17.1296 11.8396ZM4.87059 11.8396L4.12537 11.7551L4.87059 11.8396ZM5.28051 8.22791L6.02573 8.31249L5.28051 8.22791ZM4.07722 13.6334L3.50612 13.1473H3.50612L4.07722 13.6334ZM17.923 13.6334L18.4941 13.1473H18.4941L17.923 13.6334ZM13.0809 4.00984H12.3309C12.3309 4.33042 12.5346 4.61556 12.8379 4.7194L13.0809 4.00984ZM8.9193 4.00984L9.16225 4.7194C9.46554 4.61556 9.6693 4.33042 9.6693 4.00984H8.9193ZM17.5823 14.6597C17.6039 15.0734 17.9568 15.3912 18.3704 15.3696C18.7841 15.348 19.1019 14.9952 19.0803 14.5815L17.5823 14.6597ZM7.73357 3.70382C7.36614 3.89505 7.22329 4.34793 7.41452 4.71536C7.60574 5.08279 8.05862 5.22564 8.42605 5.03441L7.73357 3.70382ZM6.68127 6.56129C6.91335 6.2182 6.82336 5.75193 6.48027 5.51985C6.13719 5.28777 5.67092 5.37775 5.43883 5.72084L6.68127 6.56129ZM14.4524 18.5972C14.5977 18.2093 14.4012 17.777 14.0133 17.6317C13.6254 17.4863 13.1932 17.6829 13.0478 18.0708L14.4524 18.5972ZM8.95239 18.0708C8.80702 17.6829 8.37475 17.4863 7.98688 17.6317C7.59901 17.777 7.40242 18.2093 7.54779 18.5972L8.95239 18.0708ZM2.26435 3.28098L18.7643 19.781L19.825 18.7203L3.32501 2.22032L2.26435 3.28098ZM16.2958 15.7507H5.70433V17.2507H16.2958V15.7507ZM15.9744 8.31249L16.3844 11.9242L17.8748 11.7551L17.4649 8.14333L15.9744 8.31249ZM5.61581 11.9242L6.02573 8.31249L4.5353 8.14333L4.12537 11.7551L5.61581 11.9242ZM4.64833 14.1196C5.18517 13.4889 5.52431 12.7304 5.61581 11.9242L4.12537 11.7551C4.06922 12.2499 3.85964 12.732 3.50612 13.1473L4.64833 14.1196ZM16.3844 11.9242C16.4759 12.7304 16.815 13.4889 17.3518 14.1196L18.4941 13.1473C18.1405 12.732 17.931 12.2499 17.8748 11.7551L16.3844 11.9242ZM5.70433 15.7507C5.12548 15.7507 4.72196 15.465 4.53746 15.1399C4.36035 14.8278 4.36228 14.4556 4.64833 14.1196L3.50612 13.1473C2.78655 13.9926 2.76403 15.054 3.23288 15.8802C3.69433 16.6934 4.60717 17.2507 5.70433 17.2507V15.7507ZM13.8309 4.00984V3.91477H12.3309V4.00984H13.8309ZM17.4649 8.14333C17.2057 5.86002 15.513 4.04981 13.3238 3.30028L12.8379 4.7194C14.5765 5.31468 15.7915 6.70077 15.9744 8.31249L17.4649 8.14333ZM9.6693 4.00984V3.91477H8.1693V4.00984H9.6693ZM11.0001 2.58398C11.7351 2.58398 12.3309 3.1798 12.3309 3.91477H13.8309C13.8309 2.35137 12.5635 1.08398 11.0001 1.08398V2.58398ZM11.0001 1.08398C9.43669 1.08398 8.1693 2.35137 8.1693 3.91477H9.6693C9.6693 3.1798 10.2651 2.58398 11.0001 2.58398V1.08398ZM19.0803 14.5815C19.0538 14.0739 18.8591 13.5761 18.4941 13.1473L17.3518 14.1196C17.5107 14.3062 17.5736 14.4924 17.5823 14.6597L19.0803 14.5815ZM8.42605 5.03441C8.65952 4.91291 8.9056 4.80728 9.16225 4.7194L8.67636 3.30028C8.34923 3.41228 8.03407 3.54743 7.73357 3.70382L8.42605 5.03441ZM6.02573 8.31249C6.09759 7.67928 6.32605 7.08642 6.68127 6.56129L5.43883 5.72084C4.95593 6.43473 4.63601 7.25595 4.5353 8.14333L6.02573 8.31249ZM13.0478 18.0708C12.7615 18.8348 11.9692 19.4173 11.0001 19.4173V20.9173C12.5701 20.9173 13.9381 19.9694 14.4524 18.5972L13.0478 18.0708ZM11.0001 19.4173C10.0309 19.4173 9.23871 18.8348 8.95239 18.0708L7.54779 18.5972C8.06205 19.9694 9.43003 20.9173 11.0001 20.9173V19.4173Z" fill="white"/>
</svg>
