<svg width="22" height="22" viewBox="0 0 22 22" fill="none" xmlns="http://www.w3.org/2000/svg">
<path d="M16.7197 8.2279L15.9744 8.31248L16.7197 8.2279ZM17.1296 11.8396L17.8748 11.7551V11.7551L17.1296 11.8396ZM4.87059 11.8396L4.12537 11.7551H4.12537L4.87059 11.8396ZM5.28051 8.22791L6.02572 8.31249L5.28051 8.22791ZM4.07722 13.6334L3.50611 13.1473H3.50611L4.07722 13.6334ZM17.9229 13.6334L17.3518 14.1196L17.9229 13.6334ZM13.0809 4.00984H12.3309C12.3309 4.33042 12.5346 4.61556 12.8379 4.7194L13.0809 4.00984ZM8.9193 4.00984L9.16224 4.7194C9.46554 4.61556 9.6693 4.33042 9.6693 4.00984H8.9193ZM14.4524 18.5972C14.5977 18.2093 14.4012 17.777 14.0133 17.6317C13.6254 17.4863 13.1931 17.6829 13.0478 18.0708L14.4524 18.5972ZM8.95238 18.0708C8.80702 17.6829 8.37475 17.4863 7.98688 17.6317C7.59901 17.777 7.40242 18.2093 7.54778 18.5972L8.95238 18.0708ZM16.2958 15.7507H5.70433V17.2507H16.2958V15.7507ZM15.9744 8.31248L16.3844 11.9242L17.8748 11.7551L17.4649 8.14332L15.9744 8.31248ZM5.6158 11.9242L6.02572 8.31249L4.53529 8.14333L4.12537 11.7551L5.6158 11.9242ZM4.64833 14.1196C5.18517 13.4889 5.5243 12.7304 5.6158 11.9242L4.12537 11.7551C4.06921 12.2499 3.85964 12.732 3.50611 13.1473L4.64833 14.1196ZM16.3844 11.9242C16.4759 12.7304 16.815 13.4889 17.3518 14.1196L18.4941 13.1473C18.1405 12.732 17.931 12.2499 17.8748 11.7551L16.3844 11.9242ZM5.70433 15.7507C5.12547 15.7507 4.72196 15.465 4.53745 15.1399C4.36035 14.8278 4.36228 14.4556 4.64833 14.1196L3.50611 13.1473C2.78655 13.9926 2.76403 15.054 3.23288 15.8802C3.69432 16.6934 4.60717 17.2507 5.70433 17.2507V15.7507ZM16.2958 17.2507C17.393 17.2507 18.3058 16.6934 18.7673 15.8802C19.2361 15.054 19.2136 13.9926 18.4941 13.1473L17.3518 14.1196C17.6379 14.4556 17.6398 14.8278 17.4627 15.1399C17.2782 15.465 16.8747 15.7507 16.2958 15.7507V17.2507ZM13.8309 4.00984V3.91477H12.3309V4.00984H13.8309ZM17.4649 8.14332C17.2057 5.86002 15.5129 4.04981 13.3238 3.30028L12.8379 4.7194C14.5765 5.31468 15.7915 6.70077 15.9744 8.31248L17.4649 8.14332ZM9.6693 4.00984V3.91477H8.1693V4.00984H9.6693ZM6.02572 8.31249C6.20865 6.70077 7.42365 5.31468 9.16224 4.7194L8.67635 3.30028C6.48722 4.04981 4.79444 5.86002 4.53529 8.14333L6.02572 8.31249ZM11.0001 2.58398C11.7351 2.58398 12.3309 3.1798 12.3309 3.91477H13.8309C13.8309 2.35137 12.5635 1.08398 11.0001 1.08398V2.58398ZM11.0001 1.08398C9.43668 1.08398 8.1693 2.35137 8.1693 3.91477H9.6693C9.6693 3.1798 10.2651 2.58398 11.0001 2.58398V1.08398ZM13.0478 18.0708C12.7615 18.8348 11.9692 19.4173 11.0001 19.4173V20.9173C12.5701 20.9173 13.9381 19.9694 14.4524 18.5972L13.0478 18.0708ZM11.0001 19.4173C10.0309 19.4173 9.23871 18.8348 8.95238 18.0708L7.54778 18.5972C8.06204 19.9694 9.43002 20.9173 11.0001 20.9173V19.4173Z" fill="white"/>
</svg>
