<svg width="26" height="26" viewBox="0 0 26 26" fill="none" xmlns="http://www.w3.org/2000/svg">
<path d="M13.9192 4.33334H12.0808C11.0655 4.33334 10.2424 5.10938 10.2424 6.06668C10.2424 7.16216 9.07034 7.85863 8.10818 7.33487L8.01046 7.28167C7.13117 6.80302 6.00682 7.08707 5.49917 7.91612L4.57997 9.41723C4.07231 10.2463 4.37358 11.3064 5.25287 11.785C6.21549 12.309 6.21549 13.691 5.25287 14.215C4.37358 14.6937 4.07231 15.7538 4.57997 16.5828L5.49917 18.0839C6.00682 18.9129 7.13117 19.197 8.01045 18.7183L8.10818 18.6652C9.07034 18.1414 10.2424 18.8379 10.2424 19.9333C10.2424 20.8906 11.0655 21.6667 12.0808 21.6667H13.9192C14.9345 21.6667 15.7576 20.8906 15.7576 19.9333C15.7576 18.8379 16.9297 18.1414 17.8919 18.6651L17.9896 18.7183C18.8689 19.197 19.9932 18.9129 20.5009 18.0839L21.4201 16.5828C21.9278 15.7537 21.6265 14.6937 20.7472 14.215C19.7846 13.691 19.7846 12.309 20.7472 11.785C21.6265 11.3064 21.9278 10.2463 21.4201 9.41724L20.5009 7.91613C19.9932 7.08709 18.8689 6.80304 17.9896 7.28168L17.8919 7.33488C16.9297 7.85864 15.7576 7.16216 15.7576 6.06668C15.7576 5.10938 14.9345 4.33334 13.9192 4.33334Z" stroke="#797C7B" stroke-width="1.5" stroke-linejoin="round"/>
<circle cx="13" cy="13" r="3.25" stroke="#797C7B" stroke-width="1.5"/>
</svg>
