<svg width="24" height="24" viewBox="0 0 24 24" fill="none" xmlns="http://www.w3.org/2000/svg">
<path fill-rule="evenodd" clip-rule="evenodd" d="M5.875 8.62501H3.5C2.948 8.62501 2.5 9.07301 2.5 9.62501V14.375C2.5 14.927 2.948 15.375 3.5 15.375H5.875L9.854 18.746C10.504 19.297 11.5 18.835 11.5 17.983V6.01701C11.5 5.16501 10.503 4.70301 9.854 5.25401L5.875 8.62501Z" stroke="white" stroke-width="1.5" stroke-linecap="round" stroke-linejoin="round"/>
<path d="M15.5371 15.978C16.6991 15.256 17.5001 13.754 17.5001 12.005C17.5001 10.256 16.6991 8.753 15.5371 8.022" stroke="white" stroke-width="1.5" stroke-linecap="round" stroke-linejoin="round"/>
<path d="M18.505 19.065C20.313 17.51 21.5 14.93 21.5 12.003C21.5 9.072 20.311 6.49 18.5 4.936" stroke="white" stroke-width="1.5" stroke-linecap="round" stroke-linejoin="round"/>
</svg>
